<?xml version="1.0" encoding="UTF-8"?>
<svg width="141px" height="40px" viewBox="0 0 141 40" version="1.1" xmlns="http://www.w3.org/2000/svg" xmlns:xlink="http://www.w3.org/1999/xlink">
    <title>bibox</title>
    <g id="NFT" stroke="none" stroke-width="1" fill="none" fill-rule="evenodd">
        <g id="Artboard" transform="translate(-212.000000, -84.000000)">
            <g id="bibox" transform="translate(212.000000, 84.000000)">
                <path d="M22,4 C22,4.36666667 21.95,4.71666667 21.8583333,5.05 L29.1333333,9.20833333 C29.8583333,8.45833333 30.875,8 32,8 C34.2083333,8 36,9.79166667 36,12 C36,13.8666667 34.725,15.4333333 33,15.875 L33,24.125 C34.725,24.5666667 36,26.1333333 36,28 C36,30.2083333 34.2083333,32 32,32 C30.875,32 29.8583333,31.5333333 29.1333333,30.7916667 L21.8583333,34.95 C21.95,35.2833333 22,35.6416667 22,36 C22,38.2083333 20.2083333,40 18,40 C15.7916667,40 14,38.2083333 14,36 C14,35.6333333 14.05,35.2833333 14.1416667,34.95 L6.86666667,30.7916667 C6.14166667,31.5416667 5.125,32 4,32 C1.79166667,32 0,30.2083333 0,28 C0,26.1333333 1.275,24.5666667 3,24.125 L3,15.875 C1.275,15.4333333 0,13.8666667 0,12 C0,9.79166667 1.79166667,8 4,8 C5.125,8 6.14166667,8.46666667 6.86666667,9.20833333 L14.1416667,5.05 C14.05,4.71666667 14,4.35833333 14,4 C14,1.79166667 15.7916667,0 18,0 C20.2083333,0 22,1.79166667 22,4 Z M17,7.875 C16.275,7.69166667 15.6333333,7.30833333 15.1333333,6.79166667 L7.85833333,10.95 C7.95,11.2833333 8,11.6416667 8,12 C8,13.8666667 6.725,15.4333333 5,15.875 L5,24.125 C5.725,24.3083333 6.36666667,24.6916667 6.86666667,25.2083333 L14.1416667,21.05 C14.05,20.7166667 14,20.3583333 14,20 C14,18.1333333 15.275,16.5666667 17,16.125 L17,7.875 Z M19,7.875 L19,16.125 C20.725,16.5666667 22,18.1333333 22,20 C22,20.3666667 21.95,20.7166667 21.8583333,21.05 L29.1333333,25.2083333 C29.6333333,24.6916667 30.275,24.3083333 31,24.125 L31,15.875 C29.275,15.4333333 28,13.8666667 28,12 C28,11.6333333 28.05,11.2833333 28.1416667,10.95 L20.8666667,6.79166667 C20.3666667,7.30833333 19.725,7.69166667 19,7.875 Z M18,24 C16.875,24 15.8583333,23.5333333 15.1333333,22.7916667 L7.85833333,26.95 C7.95,27.2833333 8,27.6416667 8,28 C8,28.3583333 7.95,28.7166667 7.85833333,29.05 L15.1333333,33.2083333 C15.8583333,32.4583333 16.875,32 18,32 C19.125,32 20.1416667,32.4666667 20.8666667,33.2083333 L28.1416667,29.05 C28.05,28.7166667 28,28.3583333 28,28 C28,27.6416667 28.05,27.2833333 28.1416667,26.95 L20.8666667,22.7916667 C20.1416667,23.5333333 19.125,24 18,24 Z" id="Shape" fill="#6C6E79" fill-rule="nonzero"></path>
                <path d="M44.025,6.875 C44,6.93333333 44,7.01666667 44,7.16666667 L44,32.8 C44,32.9833333 44,33.0833333 44.0333333,33.15 C44.0666667,33.2166667 44.1166667,33.2666667 44.175,33.2916667 C44.25,33.325 44.3416667,33.325 44.525,33.325 L57.1666667,33.325 C61.675,33.325 65.3333333,29.6666667 65.3333333,25.1583333 C65.3333333,22.7166667 64.2583333,20.5166667 62.5583333,19.025 C63.4666667,17.75 64,16.1916667 64,14.5 C64,10.175 60.4916667,6.66666667 56.1666667,6.66666667 L44.5,6.66666667 C44.3416667,6.66666667 44.2666667,6.66666667 44.2083333,6.69166667 C44.125,6.725 44.0583333,6.79166667 44.025,6.875 Z M49.3333333,22.3333333 L57.1666667,22.3333333 C58.7333333,22.3333333 60,23.6 60,25.1666667 C60,26.7333333 58.7333333,28 57.1666667,28 L49.3333333,28 L49.3333333,22.3333333 Z M56.1666667,12 C57.55,12 58.6666667,13.1166667 58.6666667,14.5 C58.6666667,15.8833333 57.55,17 56.1666667,17 L49.3333333,17 L49.3333333,12 L56.1666667,12 Z" id="Shape" fill="#6C6E79" fill-rule="nonzero"></path>
                <path d="M70.8333333,11.3333333 C72.5833333,11.3333333 74,9.91666667 74,8.16666667 C74,6.41666667 72.5833333,5 70.8333333,5 C69.0833333,5 67.6666667,6.41666667 67.6666667,8.16666667 C67.6666667,9.91666667 69.0833333,11.3333333 70.8333333,11.3333333 Z" id="Path" fill="#6C6E79" fill-rule="nonzero"></path>
                <path d="M68.0333333,13.5166667 C68,13.5916667 68,13.6833333 68,13.8666667 L68,32.8 C68,32.9833333 68,33.0833333 68.0333333,33.15 C68.0666667,33.2166667 68.1166667,33.2666667 68.175,33.2916667 C68.25,33.325 68.3416667,33.325 68.525,33.325 L73.125,33.325 C73.3083333,33.325 73.4083333,33.325 73.475,33.2916667 C73.5416667,33.2583333 73.5916667,33.2083333 73.6166667,33.15 C73.65,33.075 73.65,32.9833333 73.65,32.8 L73.65,13.8666667 C73.65,13.6833333 73.65,13.5833333 73.6166667,13.5166667 C73.5833333,13.45 73.5333333,13.4 73.475,13.375 C73.4,13.3416667 73.3083333,13.3416667 73.125,13.3416667 L68.525,13.3416667 C68.3416667,13.3416667 68.2416667,13.3416667 68.175,13.375 C68.1166667,13.4 68.0666667,13.45 68.0333333,13.5166667 Z" id="Path" fill="#6C6E79" fill-rule="nonzero"></path>
                <path d="M77,7.2 C77,7.01666667 77,6.91666667 77.0333333,6.85 C77.0666667,6.78333333 77.1166667,6.73333333 77.175,6.70833333 C77.25,6.675 77.3416667,6.675 77.525,6.675 L81.7916667,6.675 C81.975,6.675 82.075,6.675 82.1416667,6.70833333 C82.2083333,6.74166667 82.2583333,6.79166667 82.2833333,6.85 C82.3166667,6.925 82.3166667,7.01666667 82.3166667,7.2 L82.3166667,14.1916667 C83.875,13.225 85.7,12.6666667 87.65,12.6666667 C93.3583333,12.6666667 97.9833333,17.4416667 97.9833333,23.3333333 C97.9833333,29.225 93.3583333,34 87.65,34 C85.5333333,34 83.5666667,33.3416667 81.9333333,32.2166667 L80.1083333,33.2583333 C80.0666667,33.2833333 80.0416667,33.3 80.0166667,33.3083333 C79.9916667,33.3166667 79.975,33.325 79.95,33.325 C79.925,33.325 79.9,33.325 79.8416667,33.325 L77.5166667,33.325 C77.3333333,33.325 77.2333333,33.325 77.1666667,33.2916667 C77.1,33.2583333 77.05,33.2083333 77.025,33.15 C76.9916667,33.075 76.9916667,32.9833333 76.9916667,32.8 L76.9916667,7.2 L77,7.2 Z M87.5,28.6666667 C90.35,28.6666667 92.6666667,26.275 92.6666667,23.3333333 C92.6666667,20.3916667 90.35,18 87.5,18 C84.65,18 82.3333333,20.3916667 82.3333333,23.3333333 C82.3333333,26.275 84.65,28.6666667 87.5,28.6666667 Z" id="Shape" fill="#6C6E79" fill-rule="nonzero"></path>
                <path d="M110.666667,34 C116.558333,34 121.333333,29.225 121.333333,23.3333333 C121.333333,17.4416667 116.558333,12.6666667 110.666667,12.6666667 C104.775,12.6666667 100,17.4416667 100,23.3333333 C100,29.225 104.775,34 110.666667,34 Z M110.666667,28.6666667 C107.725,28.6666667 105.333333,26.275 105.333333,23.3333333 C105.333333,20.3916667 107.725,18 110.666667,18 C113.608333,18 116,20.3916667 116,23.3333333 C116,26.275 113.608333,28.6666667 110.666667,28.6666667 Z" id="Shape" fill="#6C6E79" fill-rule="nonzero"></path>
                <polygon id="Path" fill="#6C6E79" fill-rule="nonzero" points="120.666667 13.3333333 127.083333 13.3333333 130.666667 18.6083333 134.25 13.3333333 140.666667 13.3333333 133.875 23.3333333 140.666667 33.3333333 134.25 33.3333333 130.666667 28.0583333 127.083333 33.3333333 120.666667 33.3333333 127.458333 23.3333333"></polygon>
                <path d="M110.666667,34 C116.558333,34 121.333333,29.225 121.333333,23.3333333 C121.333333,17.4416667 116.558333,12.6666667 110.666667,12.6666667 C104.775,12.6666667 100,17.4416667 100,23.3333333 C100,29.225 104.775,34 110.666667,34 Z" id="Path" fill="#6C6E79"></path>
                <path d="M110.558333,15.95 C110.383333,15.9 110.2,16.0083333 110.15,16.1833333 L109.716667,17.7916667 L108.108333,17.3583333 C107.933333,17.3083333 107.75,17.4166667 107.7,17.5916667 L107.358333,18.8833333 C107.308333,19.0583333 107.416667,19.2416667 107.591667,19.2916667 L108.558333,19.55 L107.008333,25.3416667 L106.041667,25.0833333 C105.866667,25.0333333 105.683333,25.1416667 105.633333,25.3166667 L105.291667,26.6083333 C105.241667,26.7833333 105.35,26.9666667 105.525,27.0166667 L107.133333,27.45 L106.7,29.0583333 C106.65,29.2333333 106.758333,29.4166667 106.933333,29.4666667 L107.575,29.6416667 C107.75,29.6916667 107.933333,29.5833333 107.983333,29.4083333 L108.416667,27.8 L109.7,28.1416667 L109.266667,29.75 C109.216667,29.925 109.325,30.1083333 109.5,30.1583333 L110.141667,30.3333333 C110.316667,30.3833333 110.5,30.275 110.55,30.1 L110.983333,28.4916667 L111.425,28.6083333 C113.05,29.0416667 114.716667,28.0833333 115.15,26.4583333 C115.408333,25.4833333 115.166667,24.4916667 114.575,23.7583333 C115,23.3916667 115.325,22.9 115.483333,22.3166667 C115.883333,20.825 115.033333,19.2916667 113.575,18.8333333 L114.008333,17.225 C114.058333,17.05 113.95,16.8666667 113.775,16.8166667 L113.133333,16.6416667 C112.958333,16.5916667 112.775,16.7 112.725,16.875 L112.291667,18.4833333 L111,18.1416667 L111.433333,16.5333333 C111.483333,16.3583333 111.375,16.175 111.2,16.125 L110.558333,15.95 Z M109.516667,23.6916667 L112.458333,24.475 C113.058333,24.6333333 113.416667,25.25 113.25,25.85 C113.091667,26.45 112.475,26.8083333 111.875,26.6416667 L108.933333,25.8583333 L109.516667,23.6916667 Z M112.866667,20.7083333 C113.375,20.8416667 113.683333,21.375 113.541667,21.8833333 C113.408333,22.3916667 112.875,22.7 112.366667,22.5583333 L109.991667,21.925 L110.491667,20.075 L112.866667,20.7083333 Z" id="Shape" fill="#FFFFFF" fill-rule="nonzero"></path>
            </g>
        </g>
    </g>
</svg>