<?xml version="1.0" encoding="UTF-8"?>
<svg width="165px" height="40px" viewBox="0 0 165 40" version="1.1" xmlns="http://www.w3.org/2000/svg" xmlns:xlink="http://www.w3.org/1999/xlink">
    <title>bitmart</title>
    <defs>
        <path d="M0,17.0329119 L21.3551081,17.2066472 C21.3551081,17.2066472 26.0684288,17.8101485 30.0944847,21.374007 C30.323573,21.5751741 31.2195122,21.374007 31.2195122,21.374007 L31.1106386,0 L0,0.0365758409 L0,17.0329119" id="path-1"></path>
        <path d="M0,17.0329119 L21.3551081,17.2066472 C21.3551081,17.2066472 26.0684288,17.8101485 30.0944847,21.374007 C30.323573,21.5751741 31.2195122,21.374007 31.2195122,21.374007 L31.1106386,0 L0,0.0365758409 L0,17.0329119" id="path-3"></path>
        <path d="M0,17.0329119 L21.3551081,17.2066472 C21.3551081,17.2066472 26.0684288,17.8101485 30.0944847,21.374007 C30.323573,21.5751741 31.2195122,21.374007 31.2195122,21.374007 L31.1106386,0 L0,0.0365758409 L0,17.0329119" id="path-5"></path>
    </defs>
    <g id="NFT" stroke="none" stroke-width="1" fill="none" fill-rule="evenodd">
        <g id="Artboard" transform="translate(-48.000000, -40.000000)">
            <g id="bitmart" transform="translate(48.000000, 40.000000)">
                <g id="编组">
                    <g id="Fill-77-Clipped">
                        <mask id="mask-2" fill="white">
                            <use xlink:href="#path-1"></use>
                        </mask>
                        <g id="path-1"></g>
                        <path d="M26.6831111,4.81429506 C24.1427265,2.70661223 20.6474295,1.65048482 16.19722,1.65048482 C10.24773,1.65048482 7.6098128,1.65048482 5.11025581,1.65048482 L5.11025581,3.21181603 C5.11025581,3.21181603 11.1277918,3.21181603 15.993082,3.21181603 C19.7764405,3.21181603 23.2014233,3.99819661 25.2927042,5.81784469 C27.3839851,7.63977877 28.9694573,10.350963 28.9694573,13.6976524 C28.9694573,16.9277564 27.5971959,19.321188 25.4219916,21.1316921 C23.2467873,22.9421962 19.3681644,23.7400067 15.4850051,23.7400067 C10.8510714,23.7400067 2.98268371,23.7400067 2.98268371,23.7400067 L2.98268371,25.3013379 C2.98268371,25.3013379 13.6273488,25.2990519 15.5711967,25.2990519 C20.2550308,25.2990519 23.9136383,24.2726424 26.5470191,22.2243953 C29.1803999,20.1738622 30.4959562,17.2912288 30.4959562,13.571923 C30.4959562,9.84347318 29.2257639,6.92426388 26.6831111,4.81429506" id="Fill-77" fill="#6C6E79" fill-rule="nonzero" mask="url(#mask-2)"></path>
                    </g>
                    <g id="Fill-79-Clipped">
                        <mask id="mask-4" fill="white">
                            <use xlink:href="#path-3"></use>
                        </mask>
                        <g id="path-1"></g>
                        <path d="M25.7440761,7.07742521 C24.1631403,5.86813647 22.3463117,4.89430471 17.2065693,4.89430471 C11.6630872,4.8965907 10.9848952,4.89430471 8.65545325,4.89430471 L8.65545325,6.41677409 C8.65545325,6.41677409 12.4819076,6.36648231 17.0160404,6.41677409 C21.3982039,6.46249389 23.006358,6.96083972 24.4806884,8.06040094 C26.3678312,9.46628482 27.5382227,11.2013513 27.5382227,13.6290727 C27.5382227,15.9699265 26.3496856,17.6272693 24.45347,19.0331532 C22.5141585,20.4733269 19.5496204,20.4893289 18.3429377,20.5167608 C17.8870294,20.5281907 11.9942444,20.5167608 11.9942444,20.5167608 L11.9942444,22.0392301 C11.9942444,22.0392301 14.9270277,22.080378 16.73932,22.0369441 C20.8991998,21.9432185 23.3670019,21.6940456 25.6646891,19.9726951 C27.8217478,18.3610721 28.9626527,16.2328154 28.9626527,13.5376331 C28.9626527,9.98291857 27.1979926,8.19070237 25.7440761,7.07742521" id="Fill-79" fill="#6C6E79" fill-rule="nonzero" mask="url(#mask-4)"></path>
                    </g>
                    <g id="Fill-80-Clipped">
                        <mask id="mask-6" fill="white">
                            <use xlink:href="#path-5"></use>
                        </mask>
                        <g id="path-1"></g>
                        <path d="M24.9796925,9.08681047 C23.7934236,8.33700573 22.7523196,7.83180193 17.8416654,7.83180193 C12.8516242,7.83180193 13.7929275,7.83180193 11.694842,7.83180193 L11.694842,8.83306558 C11.694842,8.83306558 13.5910576,8.83306558 17.6715504,8.83306558 C22.021959,8.83306558 23.6709408,9.61258819 24.1699449,9.92119684 C25.1475394,10.5246982 26.4358773,11.5076739 26.4358773,13.5102012 C26.4358773,14.7903557 25.6851029,16.3974067 24.5759528,17.0283399 C23.5643354,17.6021234 21.7157519,18.1164712 18.458616,18.1164712 C18.0480717,18.1164712 -1.61949518,18.1164712 -1.61949518,18.1164712 L-1.61949518,19.1177348 C-1.61949518,19.1177348 16.9003622,19.1177348 18.5334666,19.1177348 C22.4597217,19.1177348 23.8070328,18.6788247 25.1906352,17.9084461 C26.5787739,17.1380674 27.5041997,15.5538763 27.5041997,13.5193452 C27.5041997,11.2470711 26.2453484,9.884621 24.9796925,9.08681047" id="Fill-80" fill="#6C6E79" fill-rule="nonzero" mask="url(#mask-6)"></path>
                    </g>
                </g>
                <path d="M28.4094666,19.7198399 C25.8871976,17.6309449 22.4145738,16.587629 17.9983512,16.587629 C12.0890354,16.587629 13.1182112,16.5853659 10.6342268,16.5853659 L10.6342268,18.1311029 C10.6342268,18.1311029 12.9628215,18.1311029 17.7934168,18.1311029 C21.5497959,18.1311029 24.9526069,18.9096293 27.0289747,20.7111031 C29.1053425,22.5148402 30.6772565,25.1989457 30.6772565,28.5144724 C30.6772565,31.7100517 29.317033,34.0795783 27.1573402,35.8719995 C24.9976474,37.6644208 21.1444313,38.454263 17.2889631,38.454263 C12.6903263,38.454263 4.87804878,38.454263 4.87804878,38.454263 L4.87804878,40 C4.87804878,40 15.4445539,39.9977368 17.3767921,39.9977368 C22.0272254,39.9977368 25.657491,38.983842 28.272093,36.9537891 C30.886695,34.9259994 32.195122,32.0698939 32.195122,28.3899987 C32.195122,24.6965246 30.9339875,21.8064717 28.4094666,19.7198399" id="Fill-81" fill="#6C6E79" fill-rule="nonzero"></path>
                <path d="M27.998211,21.6218148 C26.4148211,20.4554491 24.5951721,19.5121951 19.4474511,19.5121951 C13.8930918,19.5144041 10.1379361,19.5121951 7.80487805,19.5121951 L7.80487805,20.9834063 C7.80487805,20.9834063 14.7131833,20.9348077 19.2566264,20.9834063 C23.6455925,21.0275868 25.2539714,21.5091545 26.7305904,22.5716959 C28.6229344,23.9324558 29.7951428,25.6068974 29.7951428,27.9528828 C29.7951428,30.2149252 28.6047607,31.8164689 26.7056015,33.1772288 C24.7632795,34.5667061 21.7941394,34.5843783 20.5833118,34.6108866 C20.1266958,34.6197227 14.2247632,34.6108866 14.2247632,34.6108866 L14.2247632,36.0798888 C14.2247632,36.0798888 17.1620992,36.1196512 18.9794764,36.0798888 C23.143542,35.9871097 25.6174468,35.7463259 27.9187008,34.0851385 C30.0768362,32.5255662 31.2195122,30.4689632 31.2195122,27.8645217 C31.2195122,24.4316956 29.4543845,22.6976104 27.998211,21.6218148" id="Fill-82" fill="#6C6E79" fill-rule="nonzero"></path>
                <polygon id="Fill-83" fill="#6C6E79" fill-rule="nonzero" points="9.75609756 27.3170732 20.4878049 27.3170732 20.4878049 26.3414634 9.75609756 26.3414634"></polygon>
                <polygon id="Fill-84" fill="#6C6E79" fill-rule="nonzero" points="14.6341463 30.2439024 20.4878049 30.2439024 20.4878049 29.2682927 14.6341463 29.2682927"></polygon>
                <polygon id="Fill-85" fill="#6C6E79" fill-rule="nonzero" points="4.87804878 27.3170732 7.80487805 27.3170732 7.80487805 26.3414634 4.87804878 26.3414634"></polygon>
                <polygon id="Fill-86" fill="#6C6E79" fill-rule="nonzero" points="2.92682927 30.2439024 12.6829268 30.2439024 12.6829268 29.2682927 2.92682927 29.2682927"></polygon>
                <polygon id="Fill-87" fill="#6C6E79" fill-rule="nonzero" points="5.85365854 8.7804878 9.75609756 8.7804878 9.75609756 7.80487805 5.85365854 7.80487805"></polygon>
                <polygon id="Fill-88" fill="#6C6E79" fill-rule="nonzero" points="2.92682927 14.6341463 11.7073171 14.6341463 11.7073171 13.6585366 2.92682927 13.6585366"></polygon>
                <polygon id="Fill-89" fill="#6C6E79" fill-rule="nonzero" points="2.92682927 37.0731707 12.6829268 37.0731707 12.6829268 36.097561 2.92682927 36.097561"></polygon>
                <polygon id="Fill-90" fill="#6C6E79" fill-rule="nonzero" points="0.975609756 40 2.92682927 40 2.92682927 39.0243902 0.975609756 39.0243902"></polygon>
                <polygon id="Fill-91" fill="#6C6E79" fill-rule="nonzero" points="6.82926829 11.7073171 21.4634146 11.7073171 21.4634146 10.7317073 6.82926829 10.7317073"></polygon>
                <polygon id="Fill-92" fill="#6C6E79" fill-rule="nonzero" points="13.6585366 14.6341463 20.4878049 14.6341463 20.4878049 13.6585366 13.6585366 13.6585366"></polygon>
                <path d="M27.7089432,24.6080468 C26.5144121,23.8942509 25.4680575,23.4146341 20.5349174,23.4146341 C15.5197103,23.4146341 14.7697089,23.4146341 12.6633219,23.4146341 L12.6633219,24.3671126 C12.6633219,24.3671126 16.2605932,24.3671126 20.3616648,24.3671126 C24.7340136,24.3671126 26.3935912,25.1079291 26.8951119,25.4029047 C27.8753569,25.9770938 29.1724718,26.9093068 29.1724718,28.8142636 C29.1724718,30.0324453 28.4179111,31.5591128 27.3008877,32.1580709 C26.2841685,32.7052393 24.4262622,33.193863 21.1526998,33.193863 C20.740085,33.193863 0.975609756,33.193863 0.975609756,33.193863 L0.975609756,34.1463415 C0.975609756,34.1463415 19.588867,34.1440897 21.2279279,34.1440897 C25.1762636,34.1440897 26.5303695,33.7275212 27.9209497,32.9957115 C29.3138095,32.2616501 30.2439024,30.755248 30.2439024,28.8210188 C30.2439024,26.6616174 28.9809821,25.3668772 27.7089432,24.6080468" id="Fill-93" fill="#6C6E79" fill-rule="nonzero"></path>
                <path d="M47.4291421,21.8098111 L47.4291421,30.5847075 L52.2169905,30.5847075 C54.2866202,30.5847075 55.8923285,30.1878982 57.0341155,29.3942796 C58.1736505,28.600661 58.743418,27.5116901 58.743418,26.1296214 C58.743418,23.2482448 56.3224692,21.8098111 51.4805717,21.8098111 L47.4291421,21.8098111 Z M47.4291421,11.3642574 L47.4291421,19.2395691 L51.0414228,19.2395691 C52.9714257,19.2395691 54.4893043,18.8630512 55.5950585,18.1100154 C56.7008128,17.354725 57.254816,16.2928092 57.254816,14.9197588 C57.254816,12.5501761 55.3293172,11.3642574 51.4805717,11.3642574 L47.4291421,11.3642574 Z M43.902439,33.1707317 L43.902439,8.7804878 L52.4692196,8.7804878 C55.070332,8.7804878 57.1354576,9.2967908 58.6600923,10.3271422 C60.184727,11.3597482 60.9481704,12.7034888 60.9481704,14.3583639 C60.9481704,15.7426872 60.4865011,16.9443881 59.5631625,17.9657211 C58.6398239,18.9847995 57.3651662,19.7107801 55.7436935,20.1414084 L55.7436935,20.2090464 C57.7727864,20.4029418 59.3942591,21.0229563 60.6126156,22.0713445 C61.8309721,23.1219873 62.4390244,24.4860192 62.4390244,26.1634403 C62.4390244,28.2489437 61.5156858,29.9398924 59.6690086,31.2317772 C57.8200794,32.523662 55.4914645,33.1707317 52.6786598,33.1707317 L43.902439,33.1707317 L43.902439,33.1707317 Z" id="Fill-94" fill="#6C6E79" fill-rule="nonzero"></path>
                <path d="M65.8673582,33.1707317 L69.6054016,33.1707317 L69.6054016,15.8207034 L65.8673582,15.8207034 L65.8673582,33.1707317 Z M67.7828608,11.4141331 C67.1125572,11.4141331 66.5425545,11.2456862 66.0728527,10.9065465 C65.6007046,10.5674068 65.3658537,10.1384288 65.3658537,9.6196124 C65.3658537,9.09855006 65.6007046,8.66732606 66.0728527,8.32144847 C66.5425545,7.97781684 67.1125572,7.80487805 67.7828608,7.80487805 C68.4653962,7.80487805 69.0476307,7.97781684 69.5271179,8.32144847 C70.0066052,8.66732606 70.2439024,9.09855006 70.2439024,9.6196124 C70.2439024,10.1159692 70.0066052,10.5404553 69.5271179,10.8885789 C69.0476307,11.2389484 68.4653962,11.4141331 67.7828608,11.4141331 L67.7828608,11.4141331 Z" id="Fill-95" fill="#6C6E79" fill-rule="nonzero"></path>
                <path d="M84.8780488,33.591863 C84.0566393,33.9622822 82.9758373,34.1463415 81.6333675,34.1463415 C77.8289445,34.1463415 75.926733,32.4115833 75.926733,28.9397661 L75.926733,18.4207814 L72.195122,18.4207814 L72.195122,15.9911997 L75.926733,15.9911997 L75.926733,11.6520034 L79.4057777,10.7317073 L79.4057777,15.9911997 L84.8780488,15.9911997 L84.8780488,18.4207814 L79.4057777,18.4207814 L79.4057777,28.435904 C79.4057777,29.6276875 79.6537933,30.4789614 80.1475492,30.987425 C80.6435804,31.4958886 81.4627145,31.7512708 82.6095023,31.7512708 C83.4855208,31.7512708 84.2409445,31.5557079 84.8780488,31.1599805 L84.8780488,33.591863" id="Fill-96" fill="#6C6E79" fill-rule="nonzero"></path>
                <path d="M116.097561,33.1707317 L112.865917,33.1707317 L112.865917,18.1181868 C112.865917,16.9276919 112.956186,15.4733942 113.136725,13.7507843 L113.059996,13.7507843 C112.750823,14.7631558 112.470988,15.4869226 112.227261,15.926594 L102.744462,33.1707317 L101.157977,33.1707317 L91.6954887,16.0506039 C91.4246805,15.5500549 91.1471021,14.7834484 90.8627536,13.7507843 L90.7860246,13.7507843 C90.8898344,14.6481648 90.9417393,16.1137362 90.9417393,18.1474982 L90.9417393,33.1707317 L87.804878,33.1707317 L87.804878,10.7317073 L92.1017009,10.7317073 L100.616361,26.3794996 C101.275327,27.5790134 101.699594,28.476394 101.893673,29.0716414 L102.008766,29.0716414 C102.563923,27.8405615 103.0085,26.9228884 103.344753,26.3163673 L112.033182,10.7317073 L116.097561,10.7317073 L116.097561,33.1707317" id="Fill-97" fill="#6C6E79" fill-rule="nonzero"></path>
                <path d="M133.222546,24.7737561 L128.159622,25.3628377 C126.600276,25.5462094 125.425819,25.8716941 124.63185,26.3392919 C123.840081,26.8068897 123.444196,27.6343544 123.444196,28.819394 C123.444196,29.6858252 123.80929,30.3918062 124.541676,30.9396291 C125.271863,31.487452 126.246179,31.7602174 127.462425,31.7602174 C129.129539,31.7602174 130.506338,31.267406 131.592821,30.2817832 C132.679304,29.2961604 133.222546,28.0492329 133.222546,26.5387086 L133.222546,24.7737561 Z M136.585366,33.731463 L133.222546,33.731463 L133.222546,30.9648427 L133.14117,30.9648427 C131.678596,33.0850778 129.525424,34.1463415 126.683852,34.1463415 C124.592261,34.1463415 122.955938,33.6787437 121.772683,32.7458402 C120.591628,31.8129368 120,30.5728857 120,29.0279793 C120,25.7204125 122.309327,23.7950098 126.93018,23.2517711 L133.222546,22.5091158 C133.222546,19.499528 131.779767,17.9958802 128.896407,17.9958802 C126.369344,17.9958802 124.086409,18.7224905 122.049803,20.1734189 L122.049803,17.2692699 C124.112801,16.1621633 126.492508,15.6097561 129.184523,15.6097561 C134.117685,15.6097561 136.585366,17.8102163 136.585366,22.2157211 L136.585366,33.731463 L136.585366,33.731463 Z" id="Fill-98" fill="#6C6E79" fill-rule="nonzero"></path>
                <path d="M153.170732,18.7104601 C152.542798,18.3396266 151.634999,18.1542099 150.452038,18.1542099 C148.918657,18.1542099 147.634568,18.7104601 146.604474,19.8229605 C145.574381,20.935461 145.059334,22.4523039 145.059334,24.3734894 L145.059334,33.1707317 L141.463415,33.1707317 L141.463415,15.9135715 L145.059334,15.9135715 L145.059334,19.4699985 L145.146351,19.4699985 C145.659046,18.254737 146.439848,17.3097818 147.493459,16.6284312 C148.544719,15.9493145 149.720624,15.6097561 151.021176,15.6097561 C151.957197,15.6097561 152.672148,15.6879439 153.170732,15.8465534 L153.170732,18.7104601" id="Fill-99" fill="#6C6E79" fill-rule="nonzero"></path>
                <path d="M164.878049,33.591863 C164.056639,33.9622822 162.975837,34.1463415 161.633367,34.1463415 C157.828944,34.1463415 155.926733,32.4115833 155.926733,28.9397661 L155.926733,18.4207814 L152.195122,18.4207814 L152.195122,15.9911997 L155.926733,15.9911997 L155.926733,11.6520034 L159.405778,10.7317073 L159.405778,15.9911997 L164.878049,15.9911997 L164.878049,18.4207814 L159.405778,18.4207814 L159.405778,28.435904 C159.405778,29.6276875 159.653793,30.4789614 160.147549,30.987425 C160.64358,31.4958886 161.462715,31.7512708 162.609502,31.7512708 C163.485521,31.7512708 164.240944,31.5557079 164.878049,31.1599805 L164.878049,33.591863" id="Fill-100" fill="#6C6E79" fill-rule="nonzero"></path>
            </g>
        </g>
    </g>
</svg>