<?xml version="1.0" encoding="UTF-8"?>
<svg width="155px" height="40px" viewBox="0 0 155 40" version="1.1" xmlns="http://www.w3.org/2000/svg" xmlns:xlink="http://www.w3.org/1999/xlink">
    <title>bkex</title>
    <g id="NFT" stroke="none" stroke-width="1" fill="none" fill-rule="evenodd">
        <g id="Artboard" transform="translate(-790.000000, -45.000000)" fill="#6C6E79" fill-rule="nonzero">
            <g id="bkex" transform="translate(790.000000, 45.000000)">
                <path d="M30.6239724,0 C35.7808931,0 40,4.21920131 40,9.37610857 L40,30.6238914 C40,35.7807987 35.7808931,40 30.6239724,40 L21.0914286,40 L25.5231554,33.7145703 C27.4526688,30.9780537 26.5099945,29.042787 24.8167836,26.7770783 L19.9669556,20.0474665 L24.8167836,13.3178546 C26.5099945,11.0521457 27.4526688,9.11693192 25.5231554,6.38036259 L21.0261699,0 L30.6239724,0 Z M16.4184557,0 L20.8046594,5.87526926 L20.8510091,5.94355819 C21.0256126,6.21037663 21.6268693,7.22061505 21.488896,8.28984888 C21.3278743,9.5372355 20.3620082,10.7445253 20.3620082,10.7445253 L15.7452074,17.4168182 C15.3760409,17.9882642 15.0043914,18.6393755 14.8302153,19.2238701 C14.7634399,19.4478629 14.7300522,19.745129 14.7282561,20.0474665 C14.7300522,20.349804 14.7634399,20.6470699 14.8302153,20.8711156 C15.0043914,21.4555573 15.3760409,22.1066688 15.7452074,22.6781147 L20.3620082,29.3504074 C20.3620082,29.3504074 21.3278743,30.5576973 21.488896,31.805084 C21.6268693,32.8743177 21.0256126,33.8845562 20.8510091,34.1513747 L20.8046594,34.2196636 L20.8046594,34.2196636 L16.487619,40 L9.37602768,40 C4.21921246,40 0,35.7807987 0,30.6238914 L0,9.37610857 C0,4.21920131 4.21921246,0 9.37602768,0 L16.4184557,0 Z M28.1879379,10.1116927 C28.1129211,11.9295215 26.9998217,13.7609801 25.9244947,15.1720294 L25.9244947,15.1720294 L27.2274604,16.9769681 L29.3780088,19.9273872 L27.2274604,22.877912 L25.9244947,24.6828507 C26.9998217,26.0939528 28.1129211,27.9252002 28.1879379,29.7431874 L28.1879379,29.7431874 L33.2585368,22.580329 C33.2585368,22.580329 34.2568926,21.167325 34.3216076,19.9273872 C34.2568926,18.6876079 33.2585368,17.274551 33.2585368,17.274551 L33.2585368,17.274551 L28.1879379,10.1116927 Z" id="形状结合"></path>
                <path d="M66.5457552,28.4337385 C66.0310394,28.973001 65.3528539,29.3189048 64.5278789,29.4582956 C63.984303,29.5645676 62.672837,29.6180676 60.6310783,29.6180676 L55.4493949,29.6180676 L55.4493949,22.7541688 L59.955911,22.7541688 C62.530549,22.7541688 64.2241861,22.8793137 64.9881046,23.1267444 C65.7413265,23.3707956 66.3243533,23.76448 66.7207691,24.2984394 C67.1179263,24.830475 67.3184642,25.4902552 67.3184642,26.2572434 C67.3184642,27.1653901 67.0583528,27.8969716 66.5457552,28.4337385 Z M87.5384785,22.6256442 L82.674256,22.6256442 L82.674256,24.4748488 L82.674256,26.511745 L82.674256,33.764597 C82.674256,34.0527375 82.4366501,34.2857143 82.1442364,34.2857143 L77.4862709,34.2857143 C77.1933808,34.2857143 76.9557749,34.0527375 76.9557749,33.764597 L76.9557749,26.511745 L76.9557749,12.1909248 L76.9557749,8.26884543 C76.9557749,7.98132888 77.1933808,7.7483001 77.4862709,7.7483001 L82.1442364,7.7483001 C82.4366501,7.7483001 82.674256,7.98132888 82.674256,8.26884543 L82.674256,11.7947447 L82.674256,17.5589057 L82.674256,17.9611169 L87.9622187,17.9611169 C90.3990164,14.7170151 91.8178208,12.5623047 94.767269,8.05115432 C94.8890109,7.86486648 95.0991865,7.75183556 95.3243482,7.75183556 L101.025407,7.75183556 C101.343451,7.75183556 101.532445,8.10070284 101.355313,8.36024762 L92.9883754,20.5753339 L102.199669,33.5379112 C102.38342,33.7970402 102.19485,34.1517825 101.874106,34.1517825 L95.9086989,34.1517825 C95.6885149,34.1517825 95.4828404,34.0441589 95.3597747,33.8637981 C92.723604,30.018667 90.1509255,26.3636712 87.5384785,22.6256442 Z M145.002412,20.5753339 L153.369243,8.36024762 C153.546375,8.10070284 153.357381,7.75183556 153.039285,7.75183556 L147.338226,7.75183556 C147.113064,7.75183556 146.902942,7.86486648 146.7812,8.05115432 L141.530623,16.0816009 L136.166565,8.04574714 C136.04424,7.86299476 135.836024,7.75183556 135.612822,7.75183556 L129.854254,7.75183556 C129.535893,7.75183556 129.346316,8.10262655 129.52599,8.36217133 L137.85014,20.3793236 L128.632387,33.5401469 C128.45123,33.7993798 128.640383,34.1517825 128.959803,34.1517825 L134.891531,34.1517825 C135.11145,34.1517825 135.31739,34.0441589 135.44019,33.8649419 L141.416241,25.174455 L147.373652,33.8637981 C147.496771,34.0441589 147.702392,34.1517825 147.922735,34.1517825 L153.887983,34.1517825 C154.208781,34.1517825 154.397298,33.7970402 154.213599,33.5379112 L145.002412,20.5753339 Z M125.286522,7.61904762 L105.510424,7.61904762 C105.144934,7.61904762 104.848919,7.91015164 104.848919,8.26884543 L104.848919,33.6347726 C104.848919,33.9934665 105.144934,34.2845705 105.510424,34.2845705 L125.286522,34.2845705 C125.652013,34.2845705 125.948186,33.9934665 125.948186,33.6347726 L125.948186,30.2680213 C125.948186,29.9091716 125.652013,29.6180676 125.286522,29.6180676 L110.774081,29.6180676 L110.774081,22.6256442 L125.267035,22.6256442 C125.632685,22.6256442 125.929123,22.3345922 125.929123,21.9758463 L125.929123,18.6106028 C125.929123,18.252169 125.632685,17.9611169 125.267035,17.9611169 L110.774081,17.9611169 L110.774081,12.3029159 L125.286522,12.3029159 C125.652013,12.3029159 125.948186,12.0129037 125.948186,11.65343 L125.948186,8.26884543 C125.948186,7.91015164 125.652013,7.61904762 125.286522,7.61904762 Z M55.4493949,12.2314267 L58.6243225,12.2314267 C61.2954429,12.2314267 62.9349078,12.2606463 63.4945288,12.3200213 C64.4158806,12.4250974 65.1183722,12.7276917 65.5805573,13.2169898 C66.0422657,13.7063918 66.2762709,14.3529661 66.2762709,15.1404391 C66.2762709,15.9613431 66.0055154,16.6316258 65.4690356,17.1301785 C64.9302785,17.6374658 64.1749385,17.9456233 63.2246208,18.0499715 C62.6915829,18.1093985 61.3002617,18.1398659 59.0874078,18.1398659 L55.4493949,18.1398659 L55.4493949,12.2314267 Z M72.0241945,22.4564617 C71.1379514,21.375441 69.8763154,20.5836008 68.2699998,20.0997097 C69.629972,19.4642099 70.6756074,18.4797386 71.3676143,17.179987 C71.7508444,16.4600518 71.9770651,15.6609845 72.0315552,14.850063 C72.1206771,13.5092376 71.8279989,12.2898139 71.1634754,11.2319297 C70.5789659,10.3038699 69.837553,9.54987987 68.9594648,8.9898205 C68.0816415,8.43007307 67.0747156,8.05765335 65.9652703,7.88171192 C64.8635032,7.7071743 63.1724078,7.61904762 60.9401726,7.61904762 L50.1862149,7.61904762 C49.8202476,7.61904762 49.5238095,7.90895581 49.5238095,8.26884543 L49.5238095,33.6350326 C49.5238095,33.9943503 49.8202476,34.2857143 50.1862149,34.2857143 L59.2612038,34.2857143 C62.8922796,34.2603941 65.2140076,34.1999272 66.1623661,34.1035857 C67.6899916,33.9459975 68.9954737,33.5181543 70.0417446,32.8328459 C71.0879627,32.1475373 71.9246404,31.2167221 72.5282135,30.0693594 C73.1306215,28.9214248 73.4374387,27.7249815 73.4374387,26.511745 C73.4374387,24.9664865 72.9614326,23.6022126 72.0241945,22.4564617 L72.0241945,22.4564617 Z" id="Fill-68"></path>
            </g>
        </g>
    </g>
</svg>