<?xml version="1.0" encoding="UTF-8"?>
<svg width="139px" height="40px" viewBox="0 0 139 40" version="1.1" xmlns="http://www.w3.org/2000/svg" xmlns:xlink="http://www.w3.org/1999/xlink">
    <title>gate-io</title>
    <g id="NFT" stroke="none" stroke-width="1" fill="none" fill-rule="evenodd">
        <g id="Artboard" transform="translate(-248.000000, -45.000000)" fill="#6C6E79" fill-rule="nonzero">
            <g id="gate-io" transform="translate(248.000000, 45.000000)">
                <path d="M15.6716381,19.6847793 L15.325212,19.3360974 C15.0629281,19.0741931 14.6123599,19.2596759 14.6123599,19.63107 L14.6123599,24.6108219 C14.6123599,24.8408005 14.8010728,25.027926 15.0316426,25.027926 L20.0130356,25.027926 C20.3844615,25.027926 20.5713888,24.5781106 20.3073192,24.3165635 C20.1444633,24.1537214 20.1444633,23.8900316 20.3073192,23.7275467 L25.6055671,18.4134687 C25.7687802,18.2515552 25.7687802,17.9879368 25.6055671,17.8243806 L25.1228563,17.3434967 C24.8605724,17.081521 25.0474997,16.6316342 25.4178542,16.6316342 L30.3962472,16.6316342 C30.6264598,16.6316342 30.8148156,16.8185454 30.8148156,17.0487383 L30.8148156,22.0280617 C30.8148156,22.3994558 30.3633903,22.5853671 30.100535,22.3230343 L29.764966,21.9876369 C29.6010386,21.8202238 29.3373976,21.8202238 29.1769702,21.9876369 L20.2441768,30.9153793 C20.0820351,31.0778642 19.8187513,31.0778642 19.6544668,30.9153793 L8.72583053,19.9876083 C8.56154599,19.8233378 8.56154599,19.5592909 8.72583053,19.3960918 L23.8547939,4.26906787 C24.0172927,4.10622585 24.0172927,3.84053624 23.8547939,3.67840843 L20.2973193,0.121595852 C20.1344633,-0.0405319506 19.8707509,-0.0405319506 19.7071807,0.121595852 L0.121606274,19.7062059 C-0.0405354247,19.8690479 -0.0405354247,20.1347375 0.121606274,20.2968653 L19.7051807,39.8786184 C19.8680367,40.0404605 20.1338919,40.0404605 20.2960336,39.8786184 L39.878608,20.2968653 C40.040464,20.1340233 40.040464,19.8697621 39.878608,19.7074914 L28.3574046,8.18713262 C28.1962629,8.02500482 27.9311933,8.02500482 27.7679802,8.18713262 L16.264491,19.6849221 C16.1002064,19.8491926 15.8359226,19.8491926 15.6716381,19.6849221 L15.6716381,19.6847793 Z" id="Path"></path>
                <g id="Group" transform="translate(44.800000, 3.200000)">
                    <path d="M66.2289296,21.9292253 C65.6796354,21.9292253 65.2058037,22.1290687 64.8086116,22.5311472 C64.4165202,22.9334915 64.2161586,23.4085182 64.2161586,23.9586191 C64.2161586,24.7970578 64.63493,25.4494721 65.4664569,25.9154633 C66.3784161,26.1684565 67.1114624,26.003692 67.6632415,25.4302052 C68.0630492,25.0253363 68.2583103,24.5399454 68.2583103,23.9742983 C68.2583103,23.4033361 68.0630492,22.9259177 67.6632415,22.5312801 C67.2673573,22.1330549 66.7922178,21.9346732 66.2276218,21.9346732 L66.2276218,21.9293582 L66.2289296,21.9293582 L66.2289296,21.9292253 Z M33.8558812,6.37093843 L32.354477,6.37093843 C31.7057866,6.37093843 31.1774179,6.90163958 31.1774179,7.56215921 L31.1774179,8.4133539 C29.5818489,6.72518211 27.7717936,5.88036541 25.7501292,5.88036541 C23.4179828,5.88036541 21.4708656,6.76265275 19.9171476,8.52231107 C18.3602907,10.2818365 17.586309,12.4826385 17.586309,15.1219267 C17.586309,17.806658 18.3615986,20.0529031 19.9140087,21.8487033 C21.4836824,23.6092917 23.4627111,24.4878586 25.8599881,24.4878586 C27.7559687,24.4878586 29.5294044,23.7015067 31.1789873,22.1326563 L31.1789873,23.815646 C31.1789873,24.6330905 31.832909,25.2974635 32.6355325,25.2974635 L35.1989057,25.2974635 L35.1989057,7.73489619 C35.1986441,6.98349033 34.5970361,6.37093843 33.8557505,6.37093843 L33.8558812,6.37093843 Z M30.0605196,19.296448 C29.1450292,20.3334014 27.9493988,20.8510808 26.4639502,20.8510808 C25.0750205,20.8510808 23.923072,20.3177221 23.0112435,19.2432981 C22.1216484,18.1856163 21.6772432,16.8077067 21.6772432,15.1195349 C21.6772432,13.5416491 22.1349884,12.2129031 23.0465553,11.1412694 C23.9712006,10.0796014 25.1224952,9.55288646 26.499262,9.55288646 C27.9590768,9.55288646 29.1437214,10.0772096 30.0568577,11.1309052 C30.9719557,12.2026717 31.4298317,13.5625104 31.4298317,15.2132115 C31.4298317,16.8648428 30.9720865,18.2261431 30.0568577,19.2991055 L30.0607812,19.2991055 L30.0607812,19.296448 L30.0605196,19.296448 Z M17.5836933,9.34387472 L17.5836933,7.60374896 C17.5836933,6.92117214 17.0422461,6.37359592 16.3728919,6.37359592 L14.7898782,6.37359592 C14.1231396,6.37359592 13.5803846,6.91864753 13.5803846,7.60109147 L13.5803846,8.35887531 C12.1326019,6.70830704 10.3173152,5.88049828 8.13452455,5.88049828 C5.64308282,5.88049828 3.63554316,6.83679677 2.11818322,8.73783367 C0.705712314,10.5311093 0,12.7137074 0,15.2829707 C0,17.921063 0.760510953,20.1243896 2.28048658,21.8825863 C3.78738378,23.6227121 5.72050715,24.4855997 8.08208003,24.4855997 C10.1560581,24.4855997 11.9901778,23.6631059 13.5802538,22.011076 L13.5802538,24.4700534 C13.5802538,28.1241049 12.1154692,29.9511306 9.18589988,29.9511306 C7.59530071,29.9511306 6.38711495,29.4010298 5.55689594,28.3032198 C5.3450253,28.0255119 5.16925115,27.6803037 5.02944269,27.2638747 C4.83326617,26.6812196 4.28789546,26.2945545 3.68497964,26.2945545 L2.16788127,26.2945545 C1.40279286,26.2945545 0.833880969,27.0341345 1.02718023,27.7867363 C1.44228973,29.3905327 2.24373618,30.6933681 3.43662017,31.7002918 C4.93174678,32.9665868 6.83727466,33.6 9.1490187,33.6 C11.8892122,33.6 14.0432304,32.6838296 15.6102884,30.8542793 C16.4405074,29.9018341 16.9960793,28.7625673 17.2814507,27.4363459 C17.3766617,26.9587946 17.4514703,26.3970008 17.5037841,25.7623917 C17.5560978,25.1317689 17.5822547,24.3998956 17.5822547,23.5669047 L17.5822547,21.0077399 C16.4614329,19.3676688 15.8977524,17.4068383 15.8977524,15.1219267 C15.8977524,12.8758145 16.460125,10.9565737 17.5822547,9.34374184 L17.5836933,9.34374184 L17.5836933,9.34387472 Z M12.5118765,19.157594 C11.622543,20.2878254 10.4140956,20.8509479 8.88156472,20.8509479 C7.35086477,20.8509479 6.15288019,20.2928746 5.28499529,19.1679582 C4.49191904,18.1454882 4.0945962,16.829631 4.0945962,15.2284921 C4.0945962,13.5986523 4.49178825,12.2725638 5.28499529,11.2502266 C6.16517392,10.1068407 7.36185065,9.53481552 8.88156472,9.53481552 C10.3044984,9.53481552 11.4737104,10.0588729 12.3861928,11.1060577 C13.2883431,12.1299893 13.7411185,13.4978005 13.7411185,15.2118828 C13.7411185,16.8143505 13.3304557,18.1274172 12.5117457,19.1552023 L12.5117457,19.1578598 L12.5118765,19.157594 Z M50.8705319,6.38396014 L50.8705319,6.37093843 L42.5661185,6.37093843 L42.5661185,1.20384387 C42.5661185,0.539470874 42.0374882,0.00225886819 41.3822586,0.00225886819 L39.7607943,0.00225886819 C39.100595,0.00225886819 38.5641176,0.547310476 38.5641176,1.2193902 L38.5641176,6.37093843 L36.8534584,6.37093843 L36.8534584,10.1638439 L38.5617635,10.1638439 L38.5617635,25.2952047 L40.8452581,25.2952047 C41.7973681,25.2952047 42.5637644,24.5165595 42.5637644,23.548568 L42.5637644,10.1665014 L46.6698696,10.1665014 C46.9942147,9.53720726 47.3869601,8.95707676 47.8538602,8.42637561 C48.7046124,7.4816372 49.7109979,6.80171788 50.8681778,6.38409301 L50.8707935,6.38409301 L50.8705319,6.38396014 Z M71.3029698,0.00225886819 C70.5928108,0.00225886819 69.9823095,0.263091707 69.4714658,0.783561514 C68.9631071,1.30110808 68.7050696,1.91751335 68.7050696,2.62732946 C68.7050696,3.3762107 68.9606222,4.00417606 69.4714658,4.52717048 C69.9823095,5.04484992 70.600527,5.30315814 71.3233721,5.30315814 C72.047525,5.30315814 72.6580263,5.0449828 73.1522604,4.52451299 C73.663104,4.00165144 73.9212723,3.38139281 73.9212723,2.64433741 C73.9212723,1.91007237 73.6657197,1.28715625 73.1535682,0.783694388 C72.6401089,0.260699964 72.0231991,0 71.3003541,0 L71.3029698,0.00239174279 L71.3029698,0.00225886819 Z M72.1140942,8.36671491 L70.6617341,8.36671491 C69.9171789,8.36671491 69.3104703,8.97660932 69.3104703,9.73957528 L69.3104703,22.6533919 C69.6170288,23.0193285 69.7638996,23.4514367 69.7638996,23.9497165 C69.7638996,24.4479962 69.6195137,24.8840906 69.3104703,25.251356 L69.3104703,25.9781801 L71.8879681,25.9781801 C72.6772516,25.9781801 73.3158716,25.3266959 73.3158716,24.524532 L73.3158716,9.5814545 C73.3158716,8.90910903 72.7770401,8.36432317 72.1126556,8.36432317 L72.1139635,8.36698066 L72.1140942,8.36671491 Z M90.9333073,10.8581137 C89.1297912,9.06483806 86.9344452,8.16687152 84.348054,8.16687152 C81.7731719,8.16687152 79.5892041,9.05713133 77.7986357,10.8452248 C76.0081981,12.6254787 75.1114098,14.7900059 75.1114098,17.3332258 C75.1114098,20.0309788 75.9876649,22.277091 77.7450141,24.0613311 C79.5024941,25.8689572 81.6813613,26.771973 84.2763842,26.771973 C86.8973024,26.771973 89.1093888,25.8870281 90.914082,24.114481 C92.7008576,22.3263875 93.6,20.1192075 93.6,17.4787235 C93.6,14.8613596 92.7111896,12.6553755 90.9333073,10.8582465 L90.9333073,10.8581137 Z M88.1005184,21.5996963 C87.1656719,22.6261526 85.9138042,23.1334678 84.3456999,23.1334678 C82.7898894,23.1334678 81.5408989,22.618313 80.5906199,21.578835 C79.6659746,20.5564978 79.2010362,19.1602515 79.2010362,17.4032507 C79.2010362,15.7657041 79.6786606,14.4265939 80.626324,13.3911021 C81.576603,12.3529529 82.8153923,11.8351406 84.348054,11.8351406 C85.8998103,11.8351406 87.1527243,12.3529529 88.1002568,13.3911021 C89.0379806,14.4135722 89.5078887,15.7812504 89.5078887,17.4916123 C89.5078887,19.2070234 89.0353649,20.57324 88.1003876,21.5970388 L88.1003876,21.6023538 L88.1003876,21.5996963 L88.1005184,21.5996963 Z" id="Shape"></path>
                    <path d="M52.8295933,21.4210586 C51.9959611,20.589912 51.5303954,19.4563411 51.4232519,18.0381736 L63.016684,18.0381736 C63.5456639,18.0381736 63.9817684,17.6213641 63.989431,17.101621 C63.989431,14.251232 63.2462961,12.0323687 61.7613476,10.4259017 C60.2609418,8.80837365 58.2197981,8 55.6471643,8 C53.0979145,8 51.0465981,8.83231775 49.5010097,10.4972135 C47.9663867,12.1872245 47.2,14.3920337 47.2,17.12049 C47.2,19.8692467 47.9929414,22.0779598 49.5707653,23.7415542 C50.6752288,24.8990693 52.028593,25.6475827 53.6348212,25.9958132 C54.3083325,26.1519704 55.0061527,26.2347337 55.7120317,26.2245834 C58.5916958,26.2831424 61.0972162,26.3414411 63.9770124,26.4 L63.9820327,25.9831905 C63.6298198,25.6058106 63.4530528,25.1497015 63.4530528,24.6209794 C63.4530528,24.10501 63.6374823,23.6615237 63.9973577,23.2777674 L64,22.7732496 C61.7293762,22.7172933 56.2230443,22.6639396 56.0037369,22.6639396 C54.7135227,22.6639396 53.6530528,22.2535065 52.8299896,21.4237913 L52.8299896,21.4211887 L52.8295933,21.4210586 Z M52.2670567,13.4557413 C52.5212419,13.0640471 52.8219307,12.7337746 53.1766538,12.4567258 C53.5340191,12.1746018 53.9211097,11.966132 54.354572,11.8188237 C54.7855242,11.6713853 55.2473908,11.5976011 55.742814,11.5976011 C57.8949325,11.5976011 59.2572804,12.657648 59.8248372,14.7824267 L51.6930263,14.7824267 C51.8259319,14.2866276 52.0167028,13.8445727 52.2671888,13.4531387 L52.2671888,13.4557413 L52.2670567,13.4557413 Z" id="Shape"></path>
                </g>
            </g>
        </g>
    </g>
</svg>