<?xml version="1.0" encoding="UTF-8"?>
<svg width="207px" height="40px" viewBox="0 0 207 40" version="1.1" xmlns="http://www.w3.org/2000/svg" xmlns:xlink="http://www.w3.org/1999/xlink">
    <title>lbank</title>
    <g id="NFT" stroke="none" stroke-width="1" fill="none" fill-rule="evenodd">
        <g id="Artboard" transform="translate(-1514.000000, -44.000000)" fill="#6C6E79" fill-rule="nonzero">
            <g id="lbank" transform="translate(1514.000000, 44.000000)">
                <path d="M20,0 C8.954305,0 0,8.954305 0,20 C0,31.045695 8.954305,40 20,40 C31.045695,40 40,31.045695 40,20 C39.9036967,8.99444197 31.005558,0.0963033443 20,0 Z M21.8181818,23.2722544 C22.4017941,23.7719845 22.7345773,24.504194 22.7273905,25.2724908 C22.691134,26.7634963 21.4910055,27.9636248 20,27.9997636 C19.2403265,27.9687032 18.5227257,27.6425596 17.9997636,27.0906727 C16.0101699,25.3919181 13.0807392,25.3919181 11.0911455,27.0906727 L10.9090909,27.2727273 C10.3928302,27.6973188 9.75758566,27.951334 9.09090909,27.9997636 C8.40759326,28.0355518 7.74297211,27.7697898 7.27272727,27.2727273 L6.90861804,26.908618 L6.90861804,26.7265634 L6.72656342,26.5445088 C6.72656342,26.3624542 6.54450881,26.1803996 6.54450881,25.9995271 C6.54450881,25.8186547 6.36245419,25.4545455 6.36245419,25.2724908 L6.36245419,25.2724908 C6.36245419,24.9083816 6.36245419,24.7275092 6.54450881,24.5454545 C6.54450881,24.3633999 6.72656342,24.1813453 6.72656342,24.0004729 C6.72558835,23.9518966 6.74445577,23.9050216 6.77881128,23.8706661 C6.81316679,23.8363106 6.8600418,23.8174432 6.90861804,23.8184183 L6.90861804,23.6363636 C7.27272727,23.6363636 7.27272727,23.6363636 7.27272727,23.454309 L7.45478189,23.2722544 L7.45478189,23.2722544 C8.24375954,22.3609178 8.69354593,21.2049209 8.72798203,20 C8.77834374,18.7794462 8.31682372,17.5932926 7.45478189,16.7277456 C6.99771474,16.0885939 6.74430863,15.3263154 6.7277456,14.5407259 C6.76827086,13.0520607 7.96857065,11.8564395 9.45738267,11.8217283 C10.9080029,11.8756424 12.0434552,13.0897476 12.0002364,14.5407259 C11.9716129,15.3037159 11.6452732,16.025143 11.0911455,16.5504197 C10.2990328,17.5308577 9.85161563,18.7447416 9.81794538,20.0047287 C9.85264578,21.2630838 10.3000044,22.4751474 11.0911455,23.454309 L11.2732001,23.6363636 L11.2732001,23.6363636 C12.1834535,24.4239002 13.3375896,24.8731948 14.5407259,24.9083816 C15.7612796,24.9587433 16.9474332,24.4972233 17.8129803,23.6351815 C17.8129803,23.4531268 17.9950349,23.4531268 18.1770895,23.2710722 L18.1770895,23.2710722 C18.9660671,22.3597356 19.4158535,21.2037387 19.4502896,19.9988178 C19.5006513,18.7782641 19.0391313,17.5921105 18.1770895,16.7265634 C17.5892195,16.1534894 17.2608448,15.3652193 17.2679986,14.5442724 C17.2679986,13.0380412 18.4890402,11.8169996 19.9952713,11.8169996 C21.5015024,11.8169996 22.722544,13.0380412 22.722544,14.5442724 C22.6942489,15.3053379 22.3697241,16.0252316 21.8181818,16.5504197 C20.9974613,17.5143718 20.5461881,18.7387175 20.5449817,20.0047287 C20.4959539,21.2236624 20.9573723,22.4078412 21.8181818,23.2722544 Z M25.2724908,22.5452181 C23.7662597,22.5452181 22.5452181,21.3241765 22.5452181,19.8179454 C22.5452181,18.3117142 23.7662597,17.0906727 25.2724908,17.0906727 C26.778722,17.0906727 27.9997636,18.3117142 27.9997636,19.8179454 C28.0133817,20.5453524 27.7304201,21.2469855 27.2159755,21.7614301 C26.7015309,22.2758746 25.9998979,22.5588363 25.2724908,22.5452181 Z M32.3655278,23.2722544 L32.3655278,23.2722544 C32.5475825,23.6363636 32.7296371,23.6363636 32.7296371,23.6363636 L32.7296371,23.8184183 L32.9116917,24.0004729 C32.9116917,24.1825275 33.0937463,24.3645821 33.0937463,24.5454545 C33.0937463,24.726327 33.2758009,25.0904362 33.2758009,25.2724908 L33.2758009,25.2724908 C33.2758009,25.6366001 33.2758009,25.8174725 33.0937463,25.9995271 C33.0937463,26.1815817 32.9116917,26.3636364 32.9116917,26.5445088 C32.9126668,26.5930851 32.8937993,26.6399601 32.8594438,26.6743156 C32.8250883,26.7086711 32.7782133,26.7275385 32.7296371,26.7265634 L32.7296371,26.908618 L32.3655278,27.2727273 C31.8492671,27.6973188 31.2140226,27.951334 30.547346,27.9997636 C29.863221,28.0362567 29.1975907,27.7704368 28.7267999,27.2727273 L28.3626906,26.908618 L28.3626906,26.7265634 L28.180636,26.5445088 C28.180636,26.3624542 27.9985814,26.1803996 27.9985814,25.9995271 C27.9985814,25.8186547 27.8165268,25.4545455 27.8165268,25.2724908 L27.8165268,25.2724908 C27.8165268,24.9083816 27.8165268,24.7275092 27.9985814,24.5454545 C27.9985814,24.3633999 28.180636,24.1813453 28.180636,24.0004729 C28.1796609,23.9518966 28.1985284,23.9050216 28.2328839,23.8706661 C28.2672394,23.8363106 28.3141144,23.8174432 28.3626906,23.8184183 L28.3626906,23.6363636 L28.5447452,23.454309 L28.7267999,23.2722544 C29.5157775,22.3609178 29.9655639,21.2049209 30,20 C30.0506955,18.7790413 29.5891501,17.5923938 28.7267999,16.7265634 C28.1749129,16.2036013 27.8487693,15.4860005 27.8177089,14.726327 C27.8177089,13.2200959 29.0387505,11.9990543 30.5449817,11.9990543 C32.0512128,11.9990543 33.2722544,13.2200959 33.2722544,14.726327 C33.241194,15.4860005 32.9150504,16.2036013 32.3631635,16.7265634 C31.5426067,17.690992 31.0917416,18.9157862 31.0911455,20.1820546 C31.1604646,21.3247412 31.6079692,22.4118945 32.3631635,23.2722544 L32.3655278,23.2722544 Z" id="XMLID_280_"></path>
                <polygon id="XMLID_278_" points="51.9777752 34.9095638 51.9777752 4.90956378 59.6146117 4.90956378 59.6146117 28.9076723 73.0689207 28.9076723 73.0689207 34.9071994"></polygon>
                <polygon id="XMLID_277_" points="206.339993 34.9095638 191.431611 20 206.339993 5.09161839 195.430902 5.09161839 185.973519 14.5490011 185.973519 4.90956378 178.340229 4.90956378 178.340229 34.9095638 185.977066 34.9095638 185.977066 25.4521811 195.434449 34.9095638"></polygon>
                <polygon id="XMLID_272_" points="119.24932 29.0909091 117.431138 34.9095638 109.431375 34.9095638 119.795484 4.90956378 129.977539 4.90956378 140.341648 34.9095638 132.340702 34.9095638 130.52252 29.0909091 128.700792 23.454309 124.88592 10.9090909 120.885447 23.454309"></polygon>
                <polygon id="XMLID_270_" points="152.703629 15.273673 152.703629 34.9095638 145.430902 34.9095638 145.430902 4.90956378 154.888285 4.90956378 166.161485 25.4545455 166.161485 4.90956378 173.434212 4.90956378 173.434212 34.9095638 163.976829 34.9095638"></polygon>
                <path d="M103.794775,23.2734366 C103.41889,22.4233727 102.929766,21.6280496 102.340702,20.9090909 C101.719383,20.2802801 100.97699,19.7840105 100.158411,19.4502896 C99.3980451,19.1255031 98.6055472,18.88181 97.7940655,18.7232533 C98.5464689,18.5635507 99.278507,18.3196702 99.9763565,17.996217 C100.650441,17.6812969 101.265752,17.2534979 101.795721,16.7312921 C102.366901,16.2006532 102.749898,15.4985607 102.886866,14.7310557 C103.19784,13.9207602 103.32229,13.0508219 103.250975,12.1858376 C103.219226,11.2670152 103.09727,10.3535356 102.886866,9.45856484 C102.580386,8.52941997 102.012282,7.70846013 101.250739,7.09421917 C100.441693,6.30252117 99.438178,5.73817158 98.3414115,5.45809197 C96.8590558,5.06310786 95.328536,4.87845858 93.7947748,4.90956378 L77.9773023,4.90956378 L77.9773023,34.9095638 L94.8823738,34.9095638 C97.3789348,35.0868506 99.8492834,34.306518 101.790992,32.7272727 C103.435704,31.1809937 104.302949,28.980359 104.155338,26.7277456 C104.31626,25.5640937 104.192536,24.3787728 103.794775,23.2734366 Z M85.7950112,9.81912756 L93.7947748,9.81912756 C94.4173435,9.83432985 95.0325435,9.95752985 95.6129566,10.1832368 C96.0921024,10.313791 96.5302128,10.5639654 96.8861568,10.9102731 C97.1898463,11.2291536 97.4358471,11.5983547 97.613193,12.0014186 C97.7756829,12.4049223 97.8381443,12.8417469 97.7952477,13.2746187 C97.8023078,14.1493742 97.477444,14.9942736 96.8861568,15.6389644 C96.3411751,16.3660007 95.2500296,16.5480553 93.7947748,16.5480553 L85.7950112,16.5480553 L85.7950112,9.81912756 Z M97.7952477,28.5459274 C97.250266,29.2729637 96.1591205,29.4550183 94.7038657,29.4550183 L85.7950112,29.4550183 L85.7950112,22.7272727 L94.7038657,22.7272727 C95.3264345,22.742475 95.9416345,22.865675 96.5220475,23.091382 C97.0011933,23.2219361 97.4393037,23.4721106 97.7952477,23.8184183 C98.0989372,24.1372987 98.344938,24.5064999 98.522284,24.9095638 C98.6848194,25.3130553 98.7472824,25.749891 98.7043386,26.1827639 C98.796391,27.0705035 98.4585324,27.9487602 97.7952477,28.5459274 L97.7952477,28.5459274 Z" id="XMLID_247_"></path>
            </g>
        </g>
    </g>
</svg>