<?xml version="1.0" encoding="UTF-8"?>
<svg width="328px" height="40px" viewBox="0 0 328 40" version="1.1" xmlns="http://www.w3.org/2000/svg" xmlns:xlink="http://www.w3.org/1999/xlink">
    <title>mexc</title>
    <defs>
        <linearGradient x1="-8.0439389%" y1="40.4374996%" x2="85.160305%" y2="67.9679894%" id="linearGradient-1">
            <stop stop-color="#000000" stop-opacity="0" offset="0%"></stop>
            <stop stop-color="#FFFFFF" offset="100%"></stop>
        </linearGradient>
    </defs>
    <g id="NFT" stroke="none" stroke-width="1" fill="none" fill-rule="evenodd">
        <g id="Artboard" transform="translate(-416.000000, -45.000000)" fill-rule="nonzero">
            <g id="mexc" transform="translate(416.000000, 45.000000)">
                <path d="M64.0738287,28.2470445 L49.9917396,3.82001267 C46.9045342,-1.27119301 39.3759897,-1.3253564 36.3970523,4.03664662 L21.6110254,29.4385803 C18.8486827,34.0964553 22.2608292,39.945866 27.7854361,39.945866 L57.41182,39.945866 C62.9905609,39.945866 67.161034,33.9338572 64.0738287,28.2470445 Z" id="Path" fill="#6C6E79"></path>
                <path d="M43.7629987,30.1427141 L42.8964629,28.6261784 C42.0840611,27.2179107 40.2966595,24.1848393 40.2966595,24.1848393 L28.3811059,3.4951304 C25.2939006,-1.10862046 17.9821077,-1.48775438 14.8948827,4.30755183 L1.02947854,28.3011785 C-1.84109287,33.3381874 1.57109479,39.8917321 7.79970419,39.9460622 L37.2635881,39.9460622 L49.8291415,39.9460622 L57.303552,39.9460622 C49.6667396,40.0001961 47.2295342,36.0462589 43.7629987,30.1427141 Z" id="Path" fill="#6C6E79"></path>
                <path d="M43.7629987,30.142518 L42.8964629,28.6261784 C42.0840611,27.2179107 40.2966595,24.1848393 40.2966595,24.1848393 L32.605713,10.6443841 L21.5566953,29.4927142 C18.7945095,34.1505892 22.2066952,40 27.7313022,40 L37.2094541,40 L49.7750075,40 L57.303552,40 C49.6126056,39.945866 47.229338,36.0462589 43.7629987,30.142518 Z" id="Path" fill="url(#linearGradient-1)"></path>
                <path d="M325.221589,38.0498041 C323.217063,38.0498041 321.646001,37.6165362 320.455446,36.8582684 C319.208011,36.0458666 318.558796,34.8541347 318.558796,33.2293311 L318.558796,9.61485796 L321.70092,9.61485796 C322.838517,9.61485796 323.813321,10.5356062 323.813321,11.7271615 L323.813321,32.5251972 C323.813321,32.5795273 323.813321,33.554331 324.625331,34.3667328 C325.111752,34.8541347 325.70801,35.1250007 326.52002,35.1250007 L327.116278,35.1250007 C327.333991,35.1250007 327.549742,35.3417327 327.549742,35.5582686 L327.549742,38.1039381 L325.221589,38.0498041 Z" id="Path" fill="#6C6E79"></path>
                <path d="M257.518822,38.0494119 C254.268823,38.0494119 251.615082,37.1828761 249.610556,35.4496084 C248.582795,34.5830726 247.878661,33.6080727 247.445197,32.5248049 C247.011733,31.4417333 246.79402,29.8708675 246.79402,27.758662 C246.79402,25.7005904 247.011733,24.0755907 247.445197,22.9923229 C247.823742,21.9633852 248.527876,21.0425193 249.557598,20.1759835 C251.560163,18.4428335 254.213904,17.5762388 257.463904,17.5762388 C260.713903,17.5762388 263.367645,18.4428335 265.372171,20.1759835 C266.401893,21.0425193 267.106027,22.0175191 267.484572,22.9923229 C267.918036,24.1297246 268.133788,25.7005904 268.133788,27.758662 C268.133788,29.8708675 267.918036,31.4417333 267.484572,32.5248049 C267.051108,33.6080727 266.346974,34.5830726 265.317252,35.4496084 C263.422563,37.1828761 260.768822,38.0494119 257.518822,38.0494119 Z M257.518822,20.5551174 C253.943234,20.5551174 252.156421,22.9923229 252.156421,27.8127959 C252.156421,32.687403 253.943234,35.1246084 257.518822,35.1246084 C261.092449,35.1246084 262.881224,32.687403 262.881224,27.8669299 C262.881224,22.9923229 261.039492,20.5551174 257.518822,20.5551174 Z" id="Shape" fill="#6C6E79"></path>
                <path d="M279.941269,38.0498041 C277.124734,38.0498041 274.525911,37.2915363 272.305634,35.8291346 C272.087921,35.6124026 271.654457,35.3417327 271.113117,35.0167328 C271.005242,34.9625988 270.897366,34.8000007 270.897366,34.6375988 L270.897366,9.61485796 L274.092447,9.61485796 C275.230045,9.61485796 276.204849,10.5897597 276.204849,11.7271615 L276.204849,19.0389936 L277.179652,18.4973793 C278.31725,17.9016115 279.833394,17.6308043 281.783001,17.6308043 C285.195795,17.6308043 287.794618,18.6598597 289.528474,20.6637776 C291.044617,22.4511793 291.80367,24.8342508 291.80367,27.7590542 C291.80367,30.6838577 290.936742,33.0669292 289.202886,34.8000007 C287.19836,36.9665363 284.058197,38.0498041 279.941269,38.0498041 Z M280.482609,20.5555097 C279.292054,20.5555097 277.936743,20.9887776 276.4206,21.9096435 L276.204849,22.0179114 L276.204849,33.771063 L276.4206,33.933465 C277.613116,34.6917328 279.021384,35.0708667 280.482609,35.0708667 C282.432217,35.0708667 283.950321,34.2584649 284.978082,32.6336613 C285.84501,31.3336615 286.333393,29.6547239 286.333393,27.7590542 C286.333393,22.9927151 284.328867,20.5555097 280.482609,20.5555097 Z" id="Shape" fill="#6C6E79"></path>
                <path d="M304.315285,37.9952779 C298.356626,37.9952779 294.620205,34.0956707 294.620205,27.758662 C294.620205,21.4759833 298.301707,17.5762388 304.205448,17.5762388 C306.480644,17.5762388 308.430252,18.1720263 310.001313,19.3094281 L310.326902,19.526062 L310.326902,17.9553728 L314.496787,17.9553728 C314.767456,17.9553728 314.930251,18.1720263 314.930251,18.3886603 L314.930251,37.616144 L310.271983,37.616144 L310.271983,35.8828763 L309.946395,36.1537422 C308.647964,37.345278 306.58852,37.9952779 304.315285,37.9952779 Z M305.397965,21.0425193 C301.659583,21.0425193 299.439305,23.9131888 299.439305,27.758662 C299.439305,31.6041352 301.659583,34.5830726 305.397965,34.5830726 C306.58852,34.5830726 308.647964,34.4748046 310.271983,32.8498049 L310.326902,32.7956709 L310.326902,22.9381889 L310.271983,22.8840549 C309.134385,21.5842513 307.455448,21.0425193 305.397965,21.0425193 Z" id="Shape" fill="#6C6E79"></path>
                <path d="M111.877654,37.7785459 L111.877654,9.56027287 L135.329627,9.56027287 L135.329627,11.3476157 C135.329627,12.755805 134.192226,13.8932068 132.784154,13.8932068 L117.727065,13.8932068 L117.727065,21.4757872 L132.784154,21.4757872 L132.784154,25.8088584 L117.727065,25.8088584 L117.727065,33.3913407 L132.784154,33.3913407 C134.192226,33.3913407 135.329627,34.5287425 135.329627,35.9370102 L135.329627,37.7244119 L111.877654,37.7785459 Z" id="Path" fill="#6C6E79"></path>
                <path d="M169.018412,9.56027287 L163.493806,9.56027287 C162.464672,9.56027287 161.544002,9.99356038 160.894002,10.8059818 L154.232189,19.2010621 L147.570181,10.860155 C146.920377,10.0477336 145.999511,9.61442645 144.970573,9.61442645 L139.445966,9.61442645 L150.657386,23.6964567 L139.445966,37.7785459 L144.970573,37.7785459 C145.999511,37.7785459 146.920377,37.345278 147.570181,36.5328762 L154.232189,28.1919299 L160.948136,36.5870101 C161.598136,37.345278 162.519002,37.8326798 163.54794,37.8326798 L169.072546,37.8326798 L157.860931,23.7505907 L169.018412,9.56027287 Z" id="Path" fill="#6C6E79"></path>
                <path d="M93.5168239,34.8015698 L101.20777,21.3694806 L101.20777,37.7263733 L107.057377,37.7263733 L107.057377,9.50808066 L103.42844,9.50808066 C102.291038,9.50808066 101.20777,10.1038485 100.666234,11.1329235 L91.4587524,27.9230252 L82.2512703,11.1329235 C81.7095383,10.1038485 80.6262705,9.50808066 79.4888687,9.50808066 L75.8601276,9.50808066 L75.8601276,37.7263733 L81.7095383,37.7263733 L81.7095383,21.3694806 L89.4004847,34.8015698 L93.5168239,34.8015698 Z" id="Path" fill="#6C6E79"></path>
                <path d="M184.291841,38.1039381 C176.167627,38.212206 169.559948,31.8210633 169.505814,23.696849 C169.505814,19.2555883 170.859752,15.5725759 173.405422,13.0269848 C175.951091,10.5355473 179.633966,9.181492 184.021171,9.181492 C189.166448,9.181492 193.228653,10.9688348 196.153261,14.4351937 L194.311921,16.005883 C193.17452,16.9807848 191.495386,17.034958 190.249716,16.1142098 C188.624912,14.8684812 186.566645,14.2726937 184.237707,14.2726937 C178.496564,14.2726937 175.084359,17.7390526 175.084359,23.5885811 C175.084359,29.4921258 178.604832,33.1210631 184.237707,33.1210631 C186.620779,33.1210631 188.624912,32.4710632 190.249716,31.2795275 C191.441252,30.3586616 193.120189,30.4129917 194.311921,31.3877954 L196.153261,32.9584651 C193.228653,36.3706704 189.329046,38.1039381 184.291841,38.1039381 Z" id="Path" fill="#6C6E79"></path>
                <path d="M220.309564,38.103742 C211.210742,38.103742 205.577671,32.5793312 205.577671,23.6966529 C205.577671,14.81421 211.210742,9.28972071 220.201688,9.28972071 C224.534367,9.28972071 228.162912,10.5354296 230.979448,13.0810403 L229.626099,14.597576 C229.02984,15.2475171 228.162912,15.626651 227.295984,15.626651 C226.809563,15.626651 226.32118,15.5183242 225.887716,15.3016707 C224.208779,14.435076 222.259171,14.0017885 220.201688,14.0017885 C214.350905,14.0017885 210.72236,17.7389546 210.72236,23.750983 C210.72236,29.8169296 214.513699,33.5541349 220.580234,33.5541349 C223.504645,33.5541349 225.779841,33.0125991 227.458778,31.8210633 L227.566654,31.7669294 L227.566654,25.9714564 L221.121573,25.9714564 L221.121573,24.0757868 C221.121573,22.6677152 222.259171,21.5303134 223.667439,21.5303134 L231.628663,21.5303134 C231.846376,21.5303134 232.062127,21.7468493 232.062127,21.9635813 L232.062127,34.4750008 C229.30051,36.8580723 225.346377,38.103742 220.309564,38.103742 Z" id="Path" fill="#6C6E79"></path>
                <path d="M242.51626,38.0498041 C240.511734,38.0498041 238.940672,37.6165362 237.750117,36.8582684 C236.504643,36.0458666 235.853466,34.8541347 235.853466,33.2293311 L235.853466,9.61485796 L238.99559,9.61485796 C240.133188,9.61485796 241.107992,10.5356062 241.107992,11.7271615 L241.107992,32.5251972 C241.107992,32.5795273 241.107992,33.554331 241.920001,34.3667328 C242.408384,34.8541347 243.002681,35.1250007 243.81469,35.1250007 L244.410949,35.1250007 C244.628661,35.1250007 244.844413,35.3417327 244.844413,35.5582686 L244.844413,38.1039381 L242.51626,38.0498041 Z" id="Path" fill="#6C6E79"></path>
            </g>
        </g>
    </g>
</svg>