<?xml version="1.0" encoding="UTF-8"?>
<svg width="260px" height="40px" viewBox="0 0 260 40" version="1.1" xmlns="http://www.w3.org/2000/svg" xmlns:xlink="http://www.w3.org/1999/xlink">
    <title>pancake</title>
    <g id="NFT" stroke="none" stroke-width="1" fill="none" fill-rule="evenodd">
        <g id="Artboard" transform="translate(-1781.000000, -44.000000)">
            <g id="pancake" transform="translate(1781.000000, 44.000000)">
                <path d="M50.2005012,31.0937546 C49.7473227,31.1048647 49.2995961,30.9930234 48.9048763,30.7701098 C48.702039,30.4260686 48.5906228,30.0358418 48.5812314,29.6365686 L48.5812314,11.4993873 C48.5652907,11.0966731 48.6787089,10.6994345 48.9048763,10.3658462 C49.2403134,10.0151811 49.717208,9.83639373 50.2005012,9.88011753 L57.8116445,9.88011753 C60.7265393,9.88011753 62.8310149,10.52793 64.2892466,11.6614712 C65.7190719,13.1285094 66.4804426,15.1203687 66.3937222,17.1670931 C66.3937222,19.5962593 65.7459097,21.3776129 64.2887237,22.672715 C62.9930987,23.8062562 60.7260164,24.4540687 57.8111216,24.4540687 L54.8967497,24.4540687 L54.8967497,29.4734391 C54.9126535,29.8761489 54.7992385,30.2733762 54.5731049,30.6069803 C54.24946,30.9306251 53.9252924,30.9306251 53.2774799,30.9306251 L50.2005012,30.9306251 L50.2005012,31.0937546 Z M57.3259158,19.9199041 C58.0354264,19.9811277 58.738709,19.746511 59.2693533,19.2715687 C59.755082,18.7858401 59.9171658,18.1380276 59.9171658,17.1665703 C59.9171658,16.1951129 59.755082,15.5457319 59.2693533,15.0615718 C58.7386241,14.5868183 58.0353513,14.352394 57.3259158,14.4137593 L54.8967497,14.4137593 L54.8967497,19.9199041 L57.3259158,19.9199041 Z" id="Pfad_5660" fill="#6C6E79" fill-rule="nonzero"></path>
                <path d="M73.6812206,31.5789604 C71.90513,31.660102 70.1847667,30.9480889 68.985495,29.6355229 C67.7517819,28.1355334 67.1163726,26.2322852 67.2015271,24.2919848 C67.1324061,22.7027249 67.5261922,21.1275809 68.3350683,19.7578202 C69.1820387,18.4549063 70.3531872,17.3945665 71.7336003,16.6808416 C73.3116609,15.9638966 75.0199571,15.5781064 76.7529708,15.5473004 C78.1714049,15.5298379 79.5862899,15.69306 80.9634905,16.0330291 C82.1614033,16.3502253 83.306399,16.8411642 84.3620226,17.4902151 L84.3620226,29.9596906 C84.4043544,30.2403034 84.3470026,30.5268778 84.1999388,30.7695869 C83.9572296,30.9166507 83.6706552,30.9740026 83.3900424,30.9316708 L80.1588227,30.9316708 C79.9967389,30.9316708 79.6730941,30.9316708 79.6730941,30.7695869 L79.3494492,30.4459421 L78.8611063,29.473962 C78.2691887,30.1016966 77.5520483,30.5981373 76.7561079,30.9311479 C75.8043183,31.4090898 74.7449354,31.632279 73.6812206,31.5789604 Z M75.9483029,27.3684406 C76.6577384,27.4298059 77.3610112,27.1953816 77.8917404,26.7206281 C78.3609574,26.319665 78.6031459,25.713705 78.5395529,25.0997898 L78.5395529,20.2435489 C78.0794364,20.0421049 77.5844986,19.9321779 77.0823669,19.9199041 C76.0841311,19.8449325 75.1136135,20.269485 74.491117,21.0534452 C73.7881261,21.98088 73.4432048,23.1307415 73.5196596,24.2919848 C73.5196596,26.2369909 74.3290331,27.3689635 75.9483029,27.3689635 L75.9483029,27.3684406 Z" id="Pfad_5661" fill="#6C6E79" fill-rule="nonzero"></path>
                <path d="M88.7419461,31.0937546 C88.2887676,31.1048647 87.841041,30.9930234 87.4463212,30.7701098 C87.1725901,30.4606376 87.053609,30.0439155 87.1226763,29.6365686 L87.1226763,17.0050093 C87.0803445,16.7243965 87.1376964,16.4378221 87.2847602,16.1951129 C87.5274694,16.0480491 87.8140437,15.9906973 88.0946565,16.0330291 L91.3331961,16.0330291 C91.6568409,16.0330291 91.8189248,16.0330291 91.8189248,16.1951129 C91.9810086,16.1951129 91.9810086,16.3571968 92.1425696,16.5187578 L92.3046534,17.4902151 C92.938502,16.873637 93.7185912,16.4281802 94.5717357,16.1956358 C95.6160926,15.8520843 96.7110836,15.6878533 97.8102754,15.7099071 C99.3449844,15.5981556 100.852435,16.1593002 101.940512,17.2473765 C103.028588,18.3354528 103.589733,19.8429039 103.477981,21.3776129 L103.477981,29.63866 C103.493885,30.0413698 103.38047,30.4385971 103.154336,30.7722012 C102.992252,31.095846 102.506524,31.095846 101.858711,31.095846 L98.7817327,31.095846 C98.3285541,31.1069561 97.8808276,30.9951148 97.4861077,30.7722012 C97.2123766,30.462729 97.0933955,30.0460069 97.1624629,29.63866 L97.1624629,21.7012577 C97.1624629,21.0534452 97.000379,20.5677166 96.6767342,20.4056327 C96.341297,20.0549676 95.8644025,19.8761803 95.3811092,19.9199041 C94.8498021,19.8790811 94.3244752,20.0541901 93.9239232,20.4056327 C93.5995064,20.7577979 93.425247,21.2226149 93.4381946,21.7012577 L93.4381946,29.473962 C93.4541353,29.8766762 93.3407171,30.2739148 93.1145498,30.6075031 C92.9524659,30.9311479 92.4667373,30.9311479 91.8189248,30.9311479 L88.7419461,30.9311479 L88.7419461,31.0937546 Z" id="Pfad_5662" fill="#6C6E79" fill-rule="nonzero"></path>
                <path d="M114.489748,31.5794833 C111.574853,31.5794833 109.307771,30.9316708 107.688501,29.4744848 C106.069057,28.1788598 105.259335,26.2355966 105.259335,23.6446952 C105.210437,22.1597366 105.60507,20.6938798 106.392876,19.4341754 C107.132257,18.239588 108.200658,17.2837455 109.469855,16.6813645 C111.00259,16.0183017 112.658331,15.6872247 114.328187,15.7099071 C115.534233,15.6776489 116.737501,15.8416988 117.890894,16.1956358 C118.84099,16.4274116 119.726666,16.8702493 120.482144,17.4912608 C120.644228,17.6533446 120.805789,17.8149056 120.805789,17.9769894 C120.805789,18.1390733 120.643705,18.3006343 120.482144,18.6248019 L119.186519,20.8918842 C119.024435,21.2157033 118.862526,21.3776129 118.70079,21.3776129 C118.538707,21.3776129 118.377146,21.2155291 118.052978,21.0539681 C117.547104,20.7200298 117.00292,20.4481137 116.43214,20.2440717 C115.858865,20.0439574 115.257815,19.9347556 114.650786,19.9204269 C113.69368,19.8946688 112.764258,20.2431784 112.060059,20.8918842 C111.384226,21.6436247 111.034936,22.6331845 111.089124,23.6426038 C111.034515,24.6528067 111.384033,25.6432348 112.060582,26.3954148 C112.748695,27.0698167 113.689427,27.4225675 114.651309,27.3668721 C115.258337,27.3525434 115.859388,27.2433416 116.432662,27.0432273 C117.003439,26.839176 117.547621,26.5672604 118.053501,26.2333309 C118.377146,26.0712471 118.539229,25.9096861 118.701313,25.9096861 C118.863397,25.9096861 119.024958,26.0717699 119.187042,26.3954148 L120.644751,28.8245809 C120.769248,28.9537725 120.828802,29.1322438 120.806835,29.3103096 C120.806835,29.4723934 120.644751,29.6339544 120.48319,29.7960382 C119.572722,30.3541424 118.592645,30.7897711 117.568295,31.0916632 C117.080998,31.4173994 115.947457,31.5794833 114.489748,31.5794833 Z" id="Pfad_5663" fill="#6C6E79" fill-rule="nonzero"></path>
                <path d="M129.225783,31.5789604 C127.449513,31.6602595 125.728925,30.9482329 124.529534,29.6355229 C123.29676,28.135157 122.662295,26.2319472 122.748181,24.2919848 C122.67906,22.7027249 123.072846,21.1275809 123.881722,19.7578202 C124.728711,18.454922 125.899855,17.3945863 127.280254,16.6808416 C128.858314,15.9638966 130.566611,15.5781064 132.299624,15.5473004 C133.718059,15.5298379 135.132944,15.69306 136.510144,16.0330291 C137.708062,16.350211 138.853059,16.8411508 139.908676,17.4902151 L139.908676,29.9596906 C139.951008,30.2403034 139.893656,30.5268778 139.746592,30.7695869 C139.503883,30.9166507 139.217309,30.9740026 138.936696,30.9316708 L135.703385,30.9316708 C135.541301,30.9316708 135.217656,30.9316708 135.217656,30.7695869 L134.894011,30.4459421 L134.408283,29.4744848 C133.816375,30.1022313 133.099232,30.5986739 132.303284,30.9316708 C131.356814,31.4272253 130.291689,31.6512526 129.225783,31.5789604 Z M131.654949,27.3684406 C132.364392,27.4298691 133.067689,27.1954367 133.598386,26.7206281 C134.067603,26.319665 134.309792,25.713705 134.246199,25.0997898 L134.246199,20.2435489 C133.78592,20.0420387 133.290799,19.9321103 132.78849,19.9199041 C131.790417,19.8450171 130.820095,20.26957 130.197763,21.0534452 C129.49473,21.9808584 129.149803,23.1307362 129.226306,24.2919848 C129.063699,26.2369909 129.873595,27.3689635 131.654949,27.3689635 L131.654949,27.3684406 Z" id="Pfad_5664" fill="#6C6E79" fill-rule="nonzero"></path>
                <path d="M159.670356,29.9602135 C159.879552,30.1460351 159.946331,30.4448941 159.836123,30.7020849 C159.725915,30.9592758 159.463464,31.1170578 159.184627,31.0937546 L153.678482,31.0937546 C153.516399,31.0937546 153.354838,30.9316708 153.192754,30.7701098 L148.982234,24.9403202 L148.982234,29.4744848 C148.998175,29.877199 148.884756,30.2744376 148.658589,30.608026 C148.334944,30.9316708 148.010777,30.9316708 147.362964,30.9316708 L144.285985,30.9316708 C143.832807,30.9427809 143.38508,30.8309396 142.99036,30.608026 C142.787523,30.2639848 142.676107,29.873758 142.666716,29.4744848 L142.666716,11.4993873 C142.650775,11.0966731 142.764193,10.6994345 142.99036,10.3658462 C143.325798,10.0151811 143.802692,9.83639373 144.285985,9.88011753 L147.362964,9.88011753 C147.846268,9.83631577 148.323195,10.0151154 148.658589,10.3658462 C148.93232,10.6753184 149.051301,11.0920405 148.982234,11.4993873 L148.982234,21.8633416 L153.03067,16.5192806 C153.192754,16.3571968 153.354315,16.1956358 153.516399,16.1956358 C153.678482,16.1956358 153.840043,16.033552 154.164211,16.033552 L159.022543,16.033552 C159.283121,16.049081 159.512597,16.2104048 159.615412,16.4503437 C159.718227,16.6902826 159.676757,16.9677084 159.508272,17.1670931 L154.164734,23.3205275 L159.670356,29.9602135 Z" id="Pfad_5665" fill="#6C6E79" fill-rule="nonzero"></path>
                <path d="M169.710142,31.5794833 C168.110384,31.5748011 166.522812,31.3010148 165.013894,30.7695869 C163.737523,30.1858542 162.625073,29.2959299 161.775354,28.1788598 C160.967382,26.9280309 160.571019,25.4557474 160.641813,23.96834 C160.641813,21.3776129 161.451709,19.2720916 162.908895,17.9764666 C164.366604,16.5192806 166.633687,15.8714681 169.386498,15.8714681 C172.139308,15.8714681 174.24483,16.5192806 175.539932,17.9764666 C176.997118,19.2720916 177.64493,21.2150062 177.64493,23.6441724 C177.64493,24.6156297 177.159202,25.2650107 176.349305,25.2650107 L166.633687,25.2650107 C166.575644,26.0867421 166.942201,26.8810128 167.605144,27.3700092 C168.252956,27.8557378 169.386498,28.0178217 170.682123,28.0178217 C171.387878,28.0580185 172.095838,28.0035059 172.787121,27.8557378 C173.434933,27.693654 173.920662,27.3700092 174.568475,27.2079253 C174.717522,27.1210857 174.882874,27.0659091 175.054203,27.0458415 C175.216287,27.0458415 175.378371,27.2079253 175.539932,27.3694863 L176.673473,29.3129238 C176.79797,29.4421154 176.857525,29.6205867 176.835557,29.7986525 C176.835557,29.9607363 176.673473,30.1222973 176.511912,30.2843811 C175.601436,30.8424691 174.621361,31.2780968 173.597017,31.5800061 C172.302672,31.4987516 171.00451,31.498577 169.710142,31.5794833 L169.710142,31.5794833 Z M172.138786,21.8633416 C172.138786,21.0534452 171.976702,20.4061556 171.490973,20.0819879 C171.005244,19.5962593 170.357432,19.4341754 169.385975,19.4341754 C168.414517,19.4341754 167.765136,19.5962593 167.280976,20.0819879 C166.808637,20.5484567 166.570813,21.2024258 166.633164,21.8633416 L172.138786,21.8633416 Z" id="Pfad_5666" fill="#6C6E79" fill-rule="nonzero"></path>
                <path d="M188.495136,31.5796832 C186.809962,31.5862037 185.128382,31.4234758 183.475766,31.0937546 C182.135781,30.8158019 180.867676,30.2639879 179.750975,29.4729163 C179.49209,29.350356 179.310343,29.1079612 179.265246,28.8251038 C179.243278,28.6470379 179.302833,28.4685667 179.42733,28.3393751 L180.884516,25.910209 C181.0466,25.5865641 181.208161,25.5865641 181.370244,25.5865641 C181.54831,25.5645963 181.726781,25.6241507 181.855973,25.748648 C182.673897,26.2240736 183.543004,26.6053935 184.4467,26.8853262 C185.385681,27.2037617 186.370093,27.3678009 187.361595,27.3710549 C188.096778,27.4241433 188.830935,27.2549046 189.468685,26.8853262 C189.932143,26.5524013 190.179829,25.9952572 190.116497,25.4281403 C190.119415,24.8343357 189.81243,24.2820001 189.306601,23.9709543 C188.391331,23.4220371 187.412455,22.9869419 186.391706,22.6753293 C184.286708,21.865433 182.666915,21.0544909 181.533374,20.0846022 C180.373839,19.0622287 179.722422,17.5817702 179.75202,16.0361662 C179.678039,14.1907962 180.528138,12.4298206 182.019103,11.3399178 C183.476289,10.2063766 185.417635,9.7190794 187.848892,9.7190794 C189.321507,9.68265473 190.792262,9.84605241 192.220973,10.2048081 C193.30668,10.4773114 194.344332,10.9142361 195.297952,11.500433 C195.622119,11.8240779 195.78368,11.9861617 195.78368,12.3103294 C195.805648,12.4883952 195.746094,12.6668665 195.621596,12.796058 L194.162842,15.225747 C194.000758,15.5493919 193.839197,15.5493919 193.677113,15.5493919 C193.499047,15.5713597 193.320576,15.5118052 193.191385,15.387308 C192.057843,14.5774117 190.600135,14.2537669 188.819304,14.2537669 C188.084821,14.201136 187.351465,14.3703581 186.714305,14.7394955 C186.250847,15.0724205 186.003161,15.6295645 186.066493,16.1966815 C186.075884,16.5959547 186.1873,16.9861815 186.390138,17.3302226 C186.713782,17.6538675 187.03795,17.8159513 187.361595,18.140119 C187.847324,18.3022028 188.495136,18.6258476 189.305032,18.9500153 L189.952845,19.1120991 C191.410031,19.7599116 192.705656,20.2456403 193.515552,20.8934528 C194.405156,21.377945 195.136059,22.1088478 195.620551,22.9984513 C196.098945,23.8925748 196.323006,24.9007593 196.268363,25.9133461 C196.268363,27.6946997 195.620551,29.3118781 194.163365,30.2854268 C193.191385,30.9316708 191.085863,31.5796832 188.495136,31.5796832 Z" id="Pfad_5667" fill="#6C6E79" fill-rule="nonzero"></path>
                <path d="M203.230648,31.0937546 C202.907003,31.0937546 202.74492,31.0937546 202.582836,30.9316708 C202.38278,30.7755911 202.263857,30.537554 202.259191,30.2838583 L198.211278,16.8434483 L198.211278,16.5192806 C198.211278,16.1956358 198.373362,16.033552 198.85909,16.033552 L202.907526,16.033552 C203.231171,16.033552 203.393255,16.033552 203.555339,16.1956358 C203.700188,16.32961 203.811118,16.4960951 203.878984,16.6813645 L205.499822,23.806779 L207.60482,18.1390733 C207.766904,17.8154285 207.766904,17.6533446 207.928465,17.6533446 C208.090549,17.4912608 208.25211,17.4912608 208.576278,17.4912608 L210.519715,17.4912608 C210.84336,17.4912608 211.005444,17.4912608 211.167528,17.6533446 C211.329612,17.8154285 211.329612,17.9769894 211.491173,18.1390733 L213.596171,23.806779 L215.376479,16.6813645 C215.376479,16.5192806 215.538563,16.3577196 215.700124,16.1956358 C215.829315,16.0711386 216.007787,16.0115841 216.185852,16.033552 L220.396372,16.033552 C220.882101,16.033552 221.044185,16.1956358 221.044185,16.5192806 L221.044185,16.8429254 L216.995749,30.2833354 C216.833665,30.6069803 216.833665,30.7690641 216.672104,30.9311479 C216.510543,31.0932318 216.348459,31.0932318 216.024291,31.0932318 L212.947313,31.0932318 C212.623668,31.0932318 212.461584,31.0932318 212.2995,30.9311479 C212.099444,30.7750683 211.980522,30.5370311 211.975856,30.2833354 L209.870857,24.6161525 L207.765859,30.2838583 C207.603775,30.6075031 207.603775,30.7695869 207.442214,30.9316708 C207.280653,31.0937546 207.118569,31.0937546 206.794401,31.0937546 L203.230648,31.0937546 Z" id="Pfad_5668" fill="#6C6E79" fill-rule="nonzero"></path>
                <path d="M228.493244,31.5789604 C226.716974,31.6602595 224.996386,30.9482329 223.796996,29.6355229 C222.564099,28.1350209 221.929626,26.2316019 222.015642,24.291462 C221.946521,22.7022021 222.340307,21.127058 223.149183,19.7572974 C223.996154,18.4543834 225.167302,17.3940436 226.547715,16.6803187 C228.125776,15.9633737 229.834072,15.5775835 231.567086,15.5467776 C232.98552,15.529315 234.400405,15.6925372 235.777605,16.0325063 C236.975518,16.3497024 238.120514,16.8406413 239.176138,17.4896922 L239.176138,29.9596906 C239.218469,30.2403034 239.161117,30.5268778 239.014054,30.7695869 C238.771345,30.9166507 238.48477,30.9740026 238.204157,30.9316708 L234.965618,30.9316708 C234.787552,30.9536386 234.609081,30.8940842 234.479889,30.7695869 L234.156244,30.4459421 L233.670516,29.4744848 C233.078618,30.1022431 232.361473,30.5986876 231.565517,30.9316708 C230.620589,31.4262778 229.557406,31.6502772 228.493244,31.5789604 L228.493244,31.5789604 Z M230.92241,27.3684406 C231.631853,27.4298691 232.335151,27.1954367 232.865848,26.7206281 C233.335065,26.319665 233.577253,25.713705 233.51366,25.0997898 L233.51366,20.2435489 C233.053544,20.0421049 232.558606,19.9321779 232.056474,19.9199041 C231.058238,19.8449325 230.087721,20.269485 229.465224,21.0534452 C228.762233,21.98088 228.417312,23.1307415 228.493767,24.2919848 C228.33116,26.2369909 229.140011,27.3689635 230.92241,27.3689635 L230.92241,27.3684406 Z" id="Pfad_5669" fill="#6C6E79" fill-rule="nonzero"></path>
                <path d="M243.55397,37.4092729 C243.100791,37.420383 242.653065,37.3085417 242.258345,37.0856281 C242.055529,36.7415777 241.944114,36.3513565 241.9347,35.9520869 L241.9347,18.1390733 C243.008401,17.3771673 244.217578,16.8270575 245.497407,16.5182349 C246.910113,16.0665245 248.387035,15.8482446 249.870011,15.871991 C256.185529,15.871991 259.262508,18.4627181 259.262508,23.806779 C259.262508,26.2359452 258.614695,28.1792084 257.31907,29.6365686 C256.023445,31.0937546 254.080531,31.7415671 251.651364,31.7415671 C250.993,31.7128547 250.340572,31.6041751 249.70845,31.4179223 C249.133432,31.3018074 248.584257,31.0823143 248.087611,30.7701098 L248.087611,35.9494726 C248.103399,36.3522446 247.989796,36.7494882 247.763444,37.0830138 C247.439799,37.4066586 247.115631,37.4066586 246.467819,37.4066586 L243.55397,37.4092729 Z M250.355217,27.370532 C251.327022,27.370532 251.974835,27.0467129 252.298654,26.3990747 C252.796182,25.5713992 253.022672,24.6089546 252.946467,23.6462638 C252.997025,22.6128151 252.713008,21.5906082 252.13657,20.731369 C251.465931,20.1505776 250.592398,19.8593372 249.707404,19.9214726 C249.150658,19.9171777 248.598968,20.0273377 248.086566,20.2451174 L248.086566,25.1034497 C248.07179,25.7091262 248.305895,26.2943923 248.7343,26.7227977 C249.162705,27.151203 249.747972,27.3853077 250.353648,27.370532 L250.355217,27.370532 Z" id="Pfad_5670" fill="#6C6E79" fill-rule="nonzero"></path>
                <path d="M7.28697557,6.31741024 C6.90396892,4.33144109 7.6821895,2.3003136 9.29416586,1.07871637 C10.9061422,-0.142880863 13.0720384,-0.34288091 14.8804557,0.562875278 C16.6888731,1.46863147 17.8258738,3.32290635 17.8130136,5.34543007 L17.8130136,11.8230322 L22.1850944,11.8230322 L22.1850944,5.34543007 C22.1720411,3.32284883 23.308931,1.4684222 25.1173423,0.562522884 C26.9257537,-0.343376434 29.0917308,-0.143476504 30.7037954,1.07810155 C32.31586,2.29967961 33.0941438,4.33085931 32.7111324,6.31688739 L31.2534236,13.9280306 C36.1117559,16.0330291 39.8360242,19.7578202 39.8360242,24.4540687 L39.8360242,27.2068796 C39.8360242,31.0932318 37.2447742,34.3322942 33.6825898,36.4372927 C30.1198825,38.704375 25.262073,40 19.9180121,40 C14.5739511,40 9.71614172,38.704375 6.15343442,36.4372927 C2.59072713,34.3322942 0,31.0932318 0,27.2068796 L0,24.4540687 C0,19.7578202 3.72479113,16.033552 8.58260056,13.9280306 L7.28697557,6.31741024 Z M29.4725928,15.0615718 L31.0934312,6.1553264 C31.3538058,4.77962677 30.8102287,3.37544838 29.6914284,2.53364662 C28.5726281,1.69184486 27.0728196,1.55855007 25.8230979,2.18985052 C24.5733763,2.82115097 23.7906836,4.10745775 23.8043642,5.50751391 L23.8043642,13.7685611 C23.3186355,13.7685611 22.6708231,13.6064772 22.1835258,13.6064772 L20.0800959,13.6064772 C19.3207894,13.5798005 18.5608022,13.6341353 17.8130136,13.7685611 C17.327285,13.7685611 16.6794725,13.9306449 16.1921753,13.9306449 L16.1921753,5.66959774 C16.2098315,4.26707373 15.4279631,2.97669495 14.1765829,2.34310756 C12.9252027,1.70952017 11.4223568,1.84312325 10.3023699,2.68752529 C9.1823831,3.53192732 8.64040679,4.93999597 8.90519968,6.31741024 L10.526038,15.3857395 C5.34353809,17.3286541 1.7808308,20.8897928 1.7808308,24.9397973 L1.7808308,27.6926083 C1.7808308,33.8460427 9.8777027,38.865936 19.9180121,38.865936 C29.9583215,38.865936 38.0551934,33.8465656 38.0551934,27.6926083 L38.0551934,24.9397973 C38.2167544,20.5677166 34.6545699,17.0050093 29.4725928,15.0615718 Z" id="Pfad_5671" fill="#6C6E79"></path>
                <path d="M38.2172772,27.3689635 C38.2172772,33.5223979 30.1204053,38.5422912 20.0800959,38.5422912 C10.0397865,38.5422912 1.94291463,33.5229208 1.94291463,27.3689635 L1.94291463,24.6161525 L38.3783154,24.6161525 L38.3783154,27.3689635 L38.2172772,27.3689635 Z" id="Pfad_5672" fill="#E5E6E8" fill-rule="nonzero"></path>
                <path d="M8.90676824,5.99324257 C8.64197535,4.6158283 9.18395165,3.20775965 10.3039385,2.36335761 C11.4239253,1.51895557 12.9267713,1.3853525 14.1781514,2.01893989 C15.4295316,2.65252728 16.2114,3.94290606 16.1937438,5.34543007 L16.1937438,13.7675154 C17.4812524,13.579345 18.7791976,13.4712556 20.0800959,13.4438705 C21.3757209,13.4438705 22.6713459,13.6059544 23.8048871,13.6059544 L23.8048871,5.34490722 C23.7872308,3.94238321 24.5690992,2.65200443 25.8204794,2.01841704 C27.0718596,1.38482965 28.5747055,1.51843272 29.6946924,2.36283476 C30.8146792,3.2072368 31.3566555,4.61530545 31.0918626,5.99271972 L29.4710243,14.8989651 C34.8166538,16.8434483 38.3793611,20.4077241 38.3793611,24.4540687 C38.3793611,30.6075031 30.2824892,35.6273964 20.2421798,35.6273964 C10.2018704,35.6273964 2.10499847,30.608026 2.10499847,24.4540687 C2.10499847,20.4056327 5.66770576,16.8429254 10.8496829,14.9000108 L8.90676824,5.99324257 Z" id="Pfad_5673" fill="#6C6E79"></path>
                <path d="M15.0602027,23.8062562 C15.0602027,25.4270946 14.0887453,26.8832348 13.1167652,26.8832348 C12.144785,26.8832348 11.1733277,25.5876098 11.1733277,23.8062562 C11.1733277,22.1854178 12.144785,20.7292776 13.1167652,20.7292776 C14.0887453,20.7292776 15.0602027,22.0249025 15.0602027,23.8062562 Z" id="Pfad_5674" fill="#FFFFFF" fill-rule="nonzero"></path>
                <path d="M28.9868642,23.8062562 C28.9868642,25.4270946 28.0154068,26.8832348 27.0434267,26.8832348 C25.9098855,26.8832348 25.0999892,25.5876098 25.0999892,23.8062562 C25.0999892,22.1854178 26.0714465,20.7292776 27.0434267,20.7292776 C28.0154068,20.7292776 28.9868642,22.0249025 28.9868642,23.8062562 Z" id="Pfad_5675" fill="#FFFFFF" fill-rule="nonzero"></path>
            </g>
        </g>
    </g>
</svg>