<?xml version="1.0" encoding="UTF-8"?>
<svg width="181px" height="40px" viewBox="0 0 181 40" version="1.1" xmlns="http://www.w3.org/2000/svg" xmlns:xlink="http://www.w3.org/1999/xlink">
    <title>uniswap</title>
    <g id="NFT" stroke="none" stroke-width="1" fill="none" fill-rule="evenodd">
        <g id="Artboard" transform="translate(-2168.000000, -44.000000)" fill="#6C6E79">
            <g id="uniswap" transform="translate(2168.000000, 44.000000)">
                <path d="M0.701339144,0.886621593 C5.21838062,6.42505115 10.1787329,13.3820752 10.9861496,14.5074936 L11.0783583,14.6363493 C11.506301,15.2333411 11.8585853,15.6778341 12.1269361,16.0147503 L12.1269361,16.0147503 C12.7180171,16.7630589 12.8988879,16.9853054 12.5430571,17.1886373 C12.2755063,17.3387142 11.972583,17.4142409 11.6658928,17.4073373 C11.2972445,17.392112 10.9472891,17.240928 10.6835161,16.9829411 C10.4896415,16.7973416 9.16680212,14.8550493 7.36518704,12.0320461 C5.98323952,9.8722359 4.82708496,8.07889596 4.80107739,8.04934191 C4.72778334,7.97959434 4.7289655,7.98195866 7.22450975,12.4919072 C8.79087456,15.3290963 9.86309561,17.4156124 9.86309561,17.5491967 C9.86309561,17.821094 9.78980156,17.9641356 9.45643184,18.338881 C8.83314369,19.132474 8.48834322,20.1091317 8.47523728,21.1181442 C8.20630225,22.9034333 7.39157903,24.5617853 6.1428314,25.8657073 C5.63791601,26.4212085 5.20134775,27.0351823 4.84245307,27.6945121 C4.56976974,28.2030243 4.43104019,28.7725884 4.43933578,29.3495391 C4.39276172,30.0380232 4.48399199,30.7288815 4.70768658,31.3816758 C4.93311988,32.0765092 5.26147124,32.7336104 5.68178817,33.3310611 C6.02469161,33.7847839 6.27932977,34.2988723 6.43246112,34.8465929 C6.43246112,35.0191886 6.46556166,35.0191886 7.20323083,34.8465929 C8.7025204,34.582457 10.0948187,33.8945123 11.2154891,32.8641071 C11.6591358,32.4679938 11.8892867,31.8853833 11.8361242,31.2930136 C11.8718736,30.9987461 11.8222187,30.7004061 11.6930826,30.4335817 C11.3517194,29.8428314 10.8560187,29.3561212 10.2591199,29.0256266 C9.38747228,28.5783535 8.76198459,27.7641785 8.55444214,26.8067083 C8.47897119,25.9355314 8.70018573,25.064421 9.18217023,24.3348073 C9.7222963,23.3310721 10.0278581,22.2179542 10.0758848,21.0791328 C10.1444502,20.2078794 10.2390232,19.8650523 10.4872772,19.5896086 C10.7821692,19.2821584 11.1914513,19.1109106 11.6174242,19.1167437 C12.4467313,19.0610283 13.2352706,18.7364821 13.8635322,18.1922929 C14.3061021,17.8177601 14.5626649,17.2683529 14.5657365,16.6885827 L14.5893798,16.2038962 L14.3245755,15.8929876 C13.3705706,14.7675693 0.0594251106,0 0.000317004403,0 C-0.0115046168,0 0.308861319,0.399570798 0.701339144,0.886621593 Z M6.9762557,30.2290677 C7.19293636,29.8416246 7.07985506,29.3529701 6.71499787,29.1001029 C6.37217086,28.8707634 5.84138006,28.9818866 5.84138006,29.2786093 C5.84138006,29.3696358 5.89103087,29.4370191 6.00451843,29.494945 C6.19484654,29.5930645 6.20785032,29.7041877 6.05889789,29.9311628 C5.90994546,30.158138 5.91940276,30.362652 6.09318059,30.4997828 C6.24157091,30.6011503 6.42801765,30.6295044 6.59983363,30.5768325 C6.77164961,30.5241607 6.91017176,30.3961843 6.9762557,30.2290677 L6.9762557,30.2290677 Z M13.4946977,9.10264836 C13.0679371,9.03526512 13.0490225,9.02817214 13.2499901,8.99625377 C13.8957244,8.95887587 14.5434392,9.01703477 15.1721857,9.16884944 C16.8422661,9.65374462 18.3177495,10.6511846 19.3901402,12.0202245 L19.7684321,12.4446207 L20.3086801,12.3571407 C22.5193193,11.9786885 24.7925779,12.2667553 26.8389437,13.1846542 C27.3598668,13.4240477 27.8549994,13.7159779 28.3166464,14.0559077 C28.3866166,14.2427728 28.4323063,14.437848 28.452595,14.6363493 C28.6202592,15.3917199 28.5432511,16.1808457 28.2327129,16.8895503 C28.0828371,17.0749973 28.0590612,17.3323359 28.1724226,17.5421038 C28.2751743,17.757401 28.4918488,17.8951179 28.7304031,17.8967524 C29.2115431,17.8967524 29.7293301,17.1106146 29.9704912,16.0159325 L30.0662463,15.582079 L30.2553923,15.7984146 C31.2592361,16.915596 31.9461454,18.2808434 32.2449711,19.7527469 L32.2816181,20.0530161 L32.1078403,19.7799367 C31.8585079,19.3634631 31.5217133,19.0060978 31.1207349,18.732541 C30.0868332,18.1743115 28.9153132,17.9221293 27.7432977,18.0055113 C26.4760578,17.990708 25.2171008,17.7989199 24.0029368,17.4357092 C22.3242666,16.8824573 21.4778385,16.1459703 19.483531,13.5038379 C18.8874262,12.670928 18.2256706,11.8870203 17.5045916,11.1596105 C16.4292076,10.053438 15.020481,9.33080108 13.4946977,9.10264836 Z M28.7138528,11.724684 C28.720693,11.1140775 28.843449,10.5103268 29.0755945,9.94552995 C29.1224413,9.82612846 29.1810499,9.71168335 29.2505545,9.6038851 C29.2374609,9.70957033 29.2100185,9.81297679 29.1689853,9.91124725 C29.0077039,10.5048178 28.9826485,11.1271621 29.0956912,11.7317769 C29.2304577,12.6597742 29.3072982,12.7957228 30.2778533,13.7970142 C30.7329858,14.269879 31.2637765,14.8609601 31.4600155,15.1151249 L31.8146641,15.5785325 L31.4600155,15.2475271 C30.9489776,14.774272 30.4054301,14.3373798 29.8333604,13.9400558 C29.6879544,13.8643974 29.6654934,13.8655796 29.5768312,13.9554239 C29.488169,14.0452682 29.4763474,14.1634844 29.4645258,14.7545655 C29.4890468,15.480997 29.3373505,16.2025682 29.0223972,16.8576319 C28.860441,17.1768157 28.8344334,17.1094324 28.9810215,16.7476908 C29.1155136,16.335515 29.1559092,15.8984349 29.0992377,15.4685914 C29.0992377,13.6776158 28.8864485,13.2473088 27.6522713,12.5131861 C27.3401805,12.3264045 26.8247578,12.0568715 26.5067562,11.9138299 C26.3140123,11.8355258 26.1271436,11.7434742 25.9475935,11.6383861 C26.5341768,11.7639026 27.1103682,11.9338356 27.6711859,12.1467158 C28.3923047,12.4268883 28.510521,12.4635353 28.598001,12.4292526 C28.6559269,12.4044272 28.6807523,12.2318315 28.7138528,11.724684 Z M13.0360188,10.3498294 C12.9768666,11.9295864 13.4287494,13.4863019 14.3245755,14.7888482 C14.9009646,15.6615885 15.7890321,16.2811213 16.8071159,16.5207157 C17.310717,16.56682 17.4620337,16.4024995 17.2350586,16.0714941 C16.9164334,15.6019996 16.6455529,15.1018212 16.4264597,14.5784233 C16.362623,14.3869131 16.2231278,13.8218396 16.1179154,13.3229671 C15.7561738,11.6194715 15.400343,10.9586429 14.5811046,10.4514953 C14.1701859,10.2256593 13.7291216,10.0596631 13.271269,9.95853374 L13.0762123,9.92188671 L13.0360188,10.3498294 Z M27.6617286,23.7614587 C23.6069125,22.1182533 22.1788606,20.6878372 22.1788606,18.27268 C22.1701541,18.0567515 22.1792481,17.8404727 22.2060504,17.6260373 C22.3283091,17.7043605 22.4448484,17.7912712 22.5547882,17.8861129 C23.3823017,18.5516702 24.2972951,18.8318426 26.8460367,19.2124988 C27.9045988,19.3377692 28.9495907,19.5589545 29.9681269,19.8733275 C32.2422645,20.4767031 33.9530298,22.354846 34.3421267,24.67527 C34.4387451,25.5340006 34.3956289,26.4027119 34.2144532,27.2476548 C34.0781594,27.77786 33.8552814,28.2819316 33.5548067,28.7395434 C33.5240705,28.7490007 33.4945165,28.6319667 33.4862413,28.4711926 C33.4214967,27.565572 32.9897932,26.7256504 32.2910754,26.1458797 C30.8854303,25.1085757 29.3224483,24.3035361 27.6617286,23.7614587 L27.6617286,23.7614587 Z M24.6200254,23.5805879 C24.7029687,23.8651779 24.768503,24.1545552 24.8162643,24.4471127 C25.190481,26.3190603 24.0117412,28.150214 22.1528531,28.5846802 C21.9436104,28.6496991 21.1208255,28.8116553 20.3240482,28.9464218 C19.2700384,29.0622621 18.2396929,29.3372866 17.2681592,29.7621136 C16.8745131,29.9322277 16.5055256,30.1544949 16.1711127,30.4229423 C16.2609536,30.4184612 16.349163,30.3972107 16.4311884,30.3602877 C17.5531585,29.9993647 18.722385,29.8065519 19.9008342,29.7881212 C20.5131942,29.7562028 21.2094877,29.7053699 21.4482844,29.669905 C22.5992523,29.5963019 23.6863811,29.1151824 24.514813,28.3127829 C24.9011379,27.931694 25.1940692,27.4664025 25.3706984,26.9532964 C25.4987467,26.5981356 25.5475679,26.2192665 25.51374,25.8432462 C25.549247,25.4549992 25.4979641,25.063715 25.3636054,24.6977311 C25.2268042,24.2582747 25.004651,23.8501236 24.7098697,23.4966544 L24.5171773,23.2791366 L24.6200254,23.5805879 Z M26.6710767,27.7808099 C26.1462228,26.7451968 26.0155646,25.5541482 26.3034243,24.4293803 C26.3353427,24.3111641 26.3861756,24.2248663 26.4216405,24.2248663 C26.5229567,24.2622375 26.6181711,24.3144261 26.7041772,24.3797295 C26.9524313,24.5487787 27.4501215,24.8324976 28.7765074,25.5618916 C30.0067058,26.1467062 31.1082053,26.9705201 32.0168138,27.985324 C32.5860737,28.7079468 32.957247,29.5664123 33.0937635,30.4761396 C33.1778021,31.2940489 33.1435617,32.1197998 32.9920976,32.9279438 C32.6114217,34.6060104 31.5375152,36.044186 30.0366923,36.8858226 C29.8976007,36.967021 29.7534793,37.0392791 29.6052031,37.1021583 C29.640971,36.9445846 29.6999337,36.7931938 29.7801631,36.6529367 C30.2735479,35.6547202 30.3376068,34.4982428 29.9574874,33.4516416 C29.5354023,32.3955712 28.9829927,31.3963888 28.3130999,30.4773217 C27.6959393,29.6229045 27.1469067,28.7212894 26.6710767,27.7808099 L26.6710767,27.7808099 Z M16.5269435,31.6228368 C14.6448462,31.98753 12.8917721,32.8408287 11.4436464,34.0971022 L10.9956069,34.4789405 L11.3892669,34.5415951 C12.9734836,34.6213529 14.4449314,35.3853324 15.4216219,36.6352042 C15.8556066,37.232636 16.4816019,37.6629035 17.1948651,37.8540134 C18.1408662,38.1376506 19.1471927,37.653958 19.5166315,36.7380523 C19.6657522,36.2799513 19.6507047,35.7842212 19.4740737,35.3360081 C19.2709427,34.954727 18.9102018,34.6822566 18.487903,34.5911457 C18.0656042,34.5000349 17.6246115,34.5995315 17.2823451,34.8631432 C17.0494114,35.0378869 16.9365588,35.3301925 16.9916338,35.6161299 C17.0467088,35.9020673 17.2600626,36.1315416 17.5412386,36.2072615 C17.6783694,36.2368156 17.6748229,36.2297226 17.5057737,36.1528821 C17.270813,36.0736245 17.1165801,35.848541 17.1274819,35.6008124 C17.156769,35.2941531 17.3425258,35.0244333 17.6185857,34.8877271 C17.8946456,34.7510209 18.2217641,34.7667623 18.4834218,34.9293443 C18.9112417,35.0704256 19.1877811,35.4849909 19.1537077,35.9341821 C19.1593876,36.295964 19.0076715,36.6423802 18.7379285,36.8835381 C18.4681855,37.1246961 18.1070073,37.2368221 17.748117,37.1908204 C17.3036093,37.1185383 16.8950225,36.9026185 16.5848694,36.5760961 C16.2716672,36.2050353 16.1482644,35.7096995 16.2507805,35.2350709 C16.3532966,34.7604424 16.6701381,34.360196 17.1085673,34.1514816 C17.8867735,33.8062898 18.7882829,33.8890587 19.490624,34.3701816 C20.3299591,34.9257978 20.686972,35.4341275 21.4104552,37.0986118 C21.6066804,37.5643284 21.8313199,38.0175555 22.0831055,38.4557339 C22.5799013,39.3782139 23.530246,39.9664367 24.5774676,39.9996376 C25.0908638,40.0076244 25.597689,39.8834624 26.0492594,39.6390782 C26.3767854,39.4901164 26.6769103,39.2871025 26.9370632,39.0385398 C26.8144561,39.0597472 26.6952012,39.0971137 26.5824145,39.1496631 C25.6884272,39.5851545 24.6381596,39.556912 23.7688687,39.0740047 C23.2946233,38.6495552 22.9800523,38.0754841 22.8775184,37.4473496 C22.8491465,37.3196761 22.7593022,36.7546026 22.6659114,36.1918934 C22.5920809,35.1954528 22.2724304,34.232846 21.7355498,33.3901692 C21.0978138,32.5522191 20.1876186,31.9631217 19.1619829,31.7245028 C18.2956651,31.5421735 17.4047344,31.5077993 16.5269435,31.6228368 L16.5269435,31.6228368 Z M14.1401582,20.599175 C14.2975943,20.0386375 14.7097134,19.5849123 15.2525727,19.3744551 C15.6738829,19.2879276 16.1114296,19.3290891 16.5092111,19.4926713 C17.0795199,19.7635796 17.4390513,20.3426193 17.4289332,20.9739204 C17.310717,21.5768231 16.3472549,22.0603274 15.232476,22.0686025 C14.6626738,22.0686025 14.4534311,21.9953085 14.2359133,21.7021323 C14.0862813,21.354327 14.0527037,20.9675634 14.1401582,20.599175 L14.1401582,20.599175 Z M16.3590765,19.7101891 C16.4889702,19.7640165 16.5869998,19.8744468 16.6250479,20.009806 C16.6630961,20.1451652 16.6369589,20.2904975 16.5541332,20.4041183 C16.356505,20.609315 16.0859038,20.7282606 15.801096,20.7351237 C15.3991608,20.7351237 14.9593965,20.4466761 14.9593965,20.1818718 C14.9605787,19.6498988 15.8022781,19.3661799 16.3578943,19.7101891 L16.3590765,19.7101891 Z M103.713765,21.2304496 C102.804682,18.2064789 104.304846,15.6979309 107.502594,14.8916963 C109.428312,14.6856075 111.372804,14.7344981 113.285731,15.0371022 C113.546989,15.1364038 113.660477,15.5194244 113.664023,16.3067443 C113.659563,16.8678859 113.709846,17.4281248 113.814158,17.9795038 C113.932374,18.4346362 113.864991,18.5244805 113.385033,18.5173875 C112.951179,18.5102945 112.687557,18.2561297 112.321087,17.48536 C111.730006,16.2547292 111.020709,15.8646157 109.373957,15.8598871 C107.263797,15.8539763 105.719894,17.2784816 105.971694,18.9914345 C106.134833,20.1085777 107.251976,21.2079885 109.754613,22.7187917 C112.137852,24.1563009 113.528074,25.338463 114.082509,26.3964981 C115.56494,29.2277764 114.298844,32.2576579 110.997065,33.7838292 C108.902995,34.5794458 106.601735,34.6452556 104.46562,33.9706108 L103.18652,33.5367573 L103.18652,31.4916168 C103.18652,29.6415331 103.23026,29.4476585 103.652292,29.4476585 C104.006941,29.4476585 104.157075,29.6840909 104.281202,30.4111207 C104.543031,32.193724 106.140043,33.4694741 107.936448,33.3310611 C109.753049,33.4115796 111.357939,32.1577593 111.719366,30.3756558 C111.958679,29.7034216 111.864338,28.9574693 111.465202,28.3659802 C110.942686,27.2913948 110.046607,26.5773689 106.989536,24.8194938 C105.49521,24.06431 104.329707,22.7873461 103.713765,21.2304496 L103.713765,21.2304496 Z M43.8478924,16.0986838 C43.4305891,16.0986838 43.2686329,15.9627352 43.2686329,15.6128152 C43.2686329,15.1505898 43.4317713,15.1269465 46.6969031,15.1269465 C49.7279668,15.1269465 50.1157159,15.1730509 50.0459684,15.5206065 C50.0022284,15.7369422 49.583743,16.0372114 49.1144246,16.1885281 L48.2620857,16.4627897 L48.1864274,22.6525906 C48.0621363,25.0410217 48.1309253,27.4355896 48.3921236,29.8129466 C48.9453754,31.7386887 50.6311386,32.8463746 53.010831,32.8463746 C54.4560597,32.9314568 55.8640328,32.3680942 56.8516757,31.3095639 C58.159147,30.0730223 58.3683897,28.8979531 58.3636611,22.7909036 C58.3636611,16.7618768 58.2549022,16.2700973 56.9616168,16.1447881 C56.3705357,16.0880444 56.175479,15.9509135 56.175479,15.5986292 C56.175479,15.1600471 56.3693536,15.1257644 59.0977838,15.1257644 C61.8581323,15.1257644 62.0200885,15.1529541 62.0200885,15.611633 C62.0371941,15.73498 62.0000257,15.8596888 61.9181844,15.9535456 C61.8363431,16.0474023 61.7178554,16.1012022 61.593328,16.1010481 C60.4655453,16.1105054 60.4442664,16.2192643 60.2929497,22.822822 C60.1357221,29.6793623 59.9879519,30.493872 58.5977292,32.1749065 C57.9847657,32.816 57.2646775,33.3452648 56.4698374,33.738907 C55.2908702,34.347803 53.9548251,34.5844244 52.6384499,34.4174681 C51.3927751,34.5417941 50.1358782,34.3494575 48.9843868,33.8583054 C47.6432619,33.3054977 46.5370256,32.3021088 45.8563858,31.0211163 C45.3646064,30.1132158 45.3232307,29.6226185 45.208561,23.4730111 C45.0867983,16.4379643 45.0241437,16.0986838 43.8478924,16.0986838 Z M66.6399781,16.0986838 C66.0831798,16.0986838 65.9212236,15.9887427 65.9212236,15.6128152 C65.9212236,15.1576828 66.077269,15.1281287 68.41795,15.1470433 L70.9146764,15.1671401 L72.1086601,16.5431768 C72.7647601,17.2997605 74.9056557,19.6664491 76.8656805,21.8026161 C78.8257053,23.938783 81.0753598,26.4236878 81.8650441,27.3244953 C82.3469737,27.9368749 82.9028791,28.4872212 83.5200711,28.9629721 C83.715127,27.0203601 83.7617606,25.0657019 83.6595662,23.1159982 L83.5827257,17.2690243 L82.899436,16.6779433 C82.540244,16.3597681 82.0954339,16.1542181 81.6203366,16.0868622 C81.1841187,16.0868622 81.0292555,15.95446 81.0292555,15.5950827 C81.0292555,15.1222179 81.1533825,15.1056676 84.3783208,15.1706865 C87.1197548,15.2262482 87.7273861,15.3019065 87.7273861,15.5927184 C87.7273861,15.7995968 87.3881056,16.0159325 86.9128764,16.1128698 C86.5193155,16.1799256 86.145244,16.3324596 85.8170121,16.559727 C85.6172267,16.7595124 85.5155608,19.3354437 85.4623635,25.4448576 L85.3926159,34.0486335 L84.6833186,34.0486335 C84.0756873,34.0486335 83.3522041,33.3653438 79.4818053,29.1343856 C77.0110864,26.4307808 74.1266109,23.2235749 73.0721222,21.9953085 C72.4291288,21.1954224 71.7273401,20.444635 70.9726023,19.7492005 C70.6900656,19.7172821 70.758631,30.6487352 71.0470785,31.6890379 C71.2728715,32.4976368 71.4277347,32.6347676 72.3852861,32.892479 C73.1572379,33.0981752 73.4681466,33.3062357 73.4681466,33.6159622 C73.4681466,34.0131686 73.1737882,34.0509978 70.0576088,34.0509978 C66.8858678,34.0509978 66.6470711,34.0190795 66.6470711,33.5958654 C66.6470711,33.2861389 66.8764106,33.0946287 67.3670078,32.9976914 C68.8541678,32.7009687 68.9534694,32.2304682 69.0362208,25.0405581 C69.1407107,22.5606881 69.0802873,20.0766152 68.8553499,17.6047584 C68.6205569,16.6032559 67.6576319,15.9486313 66.6399781,16.0986838 Z M92.17468,16.0986838 C91.6533465,16.0986838 91.4902081,15.9804676 91.4902081,15.6128152 C91.4902081,15.1494076 91.6521644,15.1269465 95.1442713,15.1269465 C98.6363782,15.1269465 98.7983344,15.1482255 98.7983344,15.6128152 C98.7983344,15.9674638 98.635196,16.0986838 98.1895209,16.0986838 C97.7756794,16.1340914 97.3860504,16.3086952 97.0841993,16.5940097 C96.6018772,17.0751497 96.5888734,17.3139465 96.658621,24.7450176 C96.7260042,31.9987644 96.7543761,32.4184319 97.2024155,32.7447087 C97.5105987,32.9499913 97.8682317,33.068794 98.2379896,33.0887179 C98.6375603,33.0887179 98.8006987,33.228213 98.8006987,33.5745865 C98.8006987,34.0379941 98.6375603,34.0604551 95.1466356,34.0604551 C91.7384622,34.0604551 91.4925725,34.0297189 91.4925725,33.6065049 C91.4925725,33.26486 91.7290049,33.1135433 92.4572168,32.9976914 C93.8982724,32.7683519 93.9727486,32.2978514 93.8829043,23.9068646 C93.8107924,17.1874551 93.7800562,16.7689697 93.3343811,16.4438752 C92.9872605,16.2283972 92.5890168,16.1092506 92.1805908,16.0986838 L92.17468,16.0986838 Z M117.659731,16.0986838 C117.350329,16.1164061 117.071567,15.9129048 116.994174,15.6128152 C116.875958,15.1399503 116.987081,15.1269465 120.498102,15.1269465 C123.966566,15.1269465 124.128522,15.1482255 124.128522,15.6128152 C124.128522,15.9863784 123.966566,16.0986838 123.4275,16.0986838 C121.890689,16.0986838 121.928519,16.3764919 124.255014,22.7187917 C125.437176,25.9496408 126.582691,29.0185337 126.803755,29.538685 L127.204508,30.4844147 L129.065231,25.5335197 C131.255778,19.7066426 131.539497,18.6285108 131.168298,17.565747 C130.803519,16.7483462 130.031008,16.1870934 129.14089,16.092773 C128.925736,16.092773 128.76378,15.8835303 128.76378,15.6069044 C128.76378,15.1423147 128.926918,15.1210357 132.539606,15.1210357 C136.152293,15.1210357 136.315432,15.1423147 136.315432,15.6069044 C136.315432,15.9520957 136.153475,16.092773 135.752722,16.092773 C134.72897,16.092773 134.277384,16.6365676 134.423972,17.6946027 C135.716095,21.9712924 137.223299,26.1800234 138.939831,30.3047261 C139.225915,30.019825 143.864719,17.4286162 143.864719,16.9380189 C143.864719,16.3469379 143.452144,16.0939552 142.505232,16.0939552 C142.078472,16.0939552 141.914151,15.9603708 141.914151,15.6080865 C141.914151,15.1494076 142.07729,15.1222179 144.837638,15.1222179 C147.320179,15.1222179 147.759943,15.1789617 147.759943,15.4993276 C147.759943,15.706206 147.456127,15.9816498 147.084929,16.1105054 C146.250322,16.4001352 146.039897,16.7311405 144.992502,19.4134664 L141.793571,27.6034856 C140.493193,30.9300898 139.374867,33.7980151 139.31103,33.9741573 C139.247194,34.1502995 138.838166,34.2968876 138.416134,34.2968876 L137.645364,34.2968876 L135.895764,29.7455634 C134.933484,27.2429262 133.796244,24.2780636 133.369484,23.1561917 C132.637725,21.2351782 132.576253,21.1465161 132.305538,21.699768 C132.144764,22.0201339 130.988609,24.9909073 129.736699,28.3009613 L127.459855,34.3193486 L126.609881,34.2472367 L125.759906,34.1751249 L122.518417,25.6990224 C121.423382,22.6199089 120.163747,19.6018361 118.744956,16.6578465 C118.460525,16.3524477 118.079177,16.1548819 117.665642,16.0986838 L117.659731,16.0986838 Z M166.364811,16.2015319 C166.335247,16.0624657 166.321761,15.920463 166.324617,15.7783179 C166.319417,15.7144505 166.333853,15.6505188 166.365993,15.5950827 C166.415644,15.531246 166.433376,15.5300638 166.613065,15.5123314 L166.613065,15.5123314 C167.270347,15.4496768 168.58964,15.3444644 169.686686,15.2959957 L170.021238,15.2806276 L170.021238,15.2806276 C171.232954,15.225066 173.402222,15.1517719 174.891746,15.2262482 C177.751396,15.3692898 179.785897,16.7512373 180.478644,19.0363567 C181.152926,20.958773 180.933112,23.0819039 179.879288,24.8254046 C178.72186,26.5159725 176.746946,27.4562791 174.704964,27.2890305 C173.568749,27.401379 172.428452,27.1196439 171.475297,26.491071 C171.377178,26.4225056 171.283787,26.3563046 171.182121,26.2995608 L171.182121,29.2124083 C171.112799,30.3148957 171.175105,31.4217161 171.367721,32.5094584 C171.574599,32.9823233 172.043917,33.2778638 172.956547,33.5024746 C173.139169,33.5406805 173.314417,33.6081451 173.475516,33.70226 C173.601341,33.8991696 173.617407,34.1468455 173.518074,34.35836 C173.452962,34.4253446 173.360108,34.4577561 173.267455,34.44584 L169.224461,34.4127394 L166.786843,34.4068286 C166.786843,34.4068286 166.531495,34.4552973 166.432194,34.3524492 C166.369545,34.2586371 166.338863,34.1471034 166.344714,34.0344476 C166.354976,33.9121261 166.401487,33.7956446 166.478298,33.6998957 C166.64307,33.6020903 166.821027,33.5284395 167.006725,33.4811957 C167.952454,33.2175735 168.354389,32.9385833 168.567179,32.4172498 C168.738592,31.9928536 168.739774,31.2067158 168.738592,24.7899398 C168.738592,18.7041691 168.727953,17.5692935 168.588458,17.2430167 C168.381579,16.7595124 167.864974,16.6318389 167.128487,16.449786 L167.128487,16.449786 C166.983081,16.4131389 166.828218,16.3753097 166.66508,16.3315698 C166.670991,16.3292054 166.408551,16.2937406 166.368357,16.2015319 L166.364811,16.2015319 Z M178.136781,21.1666128 C178.280135,22.450533 177.889925,23.7369864 177.057467,24.7249208 C175.742024,25.6881155 174.08027,26.049329 172.483682,25.7191192 C172.167665,25.6600784 171.863399,25.5498717 171.582874,25.3928424 L171.562777,25.382203 L171.199854,25.1906927 L171.178575,21.6843998 C171.165571,19.4879426 171.188032,18.0563443 171.240047,17.8518302 C171.287334,16.6933114 172.995558,16.5514519 173.830164,16.5928276 C177.405023,16.5940097 178.035115,19.6026123 178.140328,21.167795 L178.136781,21.1666128 Z M155.149639,15.2628952 L154.711056,15.42958 L153.757052,15.9225417 L153.070215,17.6366767 C152.693106,18.5824064 152.006269,20.3107275 151.533405,21.4834323 C150.68343,23.6195992 150.121903,25.0228257 149.530822,26.4875246 C149.357044,26.9178316 148.832164,28.2300315 148.36521,29.4027364 C147.898256,30.5754412 147.43012,31.6914022 147.327272,31.8852768 L147.272892,31.9881249 C147.011634,32.4799044 146.557684,33.3322433 145.754996,33.4622811 C145.539719,33.4789558 145.332043,33.5492649 145.150911,33.6667951 C145.061056,33.7381315 145.007036,33.8453083 145.003141,33.9599714 L145.003141,34.1644854 C145.015409,34.2272158 145.05479,34.28131 145.110718,34.3122557 C145.179055,34.3438526 145.252997,34.3615344 145.328236,34.3642708 L148.26118,34.3311703 L151.293426,34.3311703 C151.293426,34.3311703 151.507397,34.3559957 151.590148,34.2874303 C151.641369,34.2424132 151.678001,34.1831437 151.695361,34.1171989 L151.695361,33.9032276 C151.674761,33.7819091 151.618361,33.6695198 151.533405,33.5804973 C151.352005,33.5019157 151.160003,33.4505294 150.963602,33.4279984 C150.515521,33.3997236 150.106219,33.16422 149.856585,32.7910446 C149.606952,32.4178692 149.545512,31.9496649 149.690414,31.5247174 C149.763708,31.1192358 150.251941,29.619072 150.801646,28.1082688 L150.991974,27.5857532 L154.168444,27.5609278 C155.91568,27.547924 157.424118,27.5609278 157.521056,27.5810245 C157.659369,27.6153072 157.852061,28.0077851 158.418317,29.4039185 C159.277749,31.5199887 159.346314,31.7777001 159.155986,32.1725422 L159.118157,32.2517471 C158.918074,32.883427 158.37958,33.3487808 157.72557,33.4551881 C157.72557,33.4551881 157.262162,33.4717384 157.147493,33.6100514 C157.079119,33.6934536 157.046788,33.800658 157.057648,33.9079562 L157.057648,34.1195632 C157.072781,34.1840216 157.103649,34.2437264 157.147493,34.2933411 C157.194627,34.3241762 157.25122,34.3371718 157.307084,34.3299881 L160.190378,34.3087092 L164.244012,34.3087092 C164.244012,34.3087092 164.403604,34.3252594 164.446161,34.2649692 C164.47305,34.2247753 164.490804,34.1791779 164.498177,34.1313849 L164.498177,33.8500303 C164.48852,33.7639358 164.455396,33.6821489 164.402421,33.6135978 C164.210027,33.5290762 164.006656,33.472164 163.798337,33.4445487 C163.237436,33.2972047 162.775128,32.900692 162.544063,32.3687811 C162.480226,32.2635687 162.425846,32.1678136 162.365556,32.0897909 C162.03726,31.4950052 161.752787,30.8770651 161.514399,30.2408893 L159.900748,26.082043 L158.141691,21.5567263 C157.740938,20.5270631 156.980808,18.5694027 156.451199,17.2051876 L156.214767,16.5999206 L156.214767,16.5999206 C155.860118,15.6837449 155.717076,15.3137282 155.676883,15.2640774 C155.548027,15.1021211 155.153185,15.2640774 155.153185,15.2640774 L155.149639,15.2628952 Z M154.960493,20.8379718 C154.832819,20.5270631 154.605844,19.9690826 154.460438,19.5978837 C154.193269,18.9240513 154.091603,18.7703702 154.008852,18.907501 C153.985209,18.9476945 153.81616,19.4087378 153.635289,19.9312534 C152.46022,23.3146014 151.927065,24.8384084 151.82067,25.1256738 C151.767737,25.2593638 151.728139,25.3979556 151.702454,25.5394305 C152.563742,25.6370493 153.431466,25.6655123 154.2973,25.6245462 C155.724169,25.6245462 156.892146,25.6068138 156.892146,25.5855349 C156.892146,25.5642559 156.764472,25.2415257 156.609609,24.8679625 C156.454746,24.4943992 156.072907,23.5675841 155.763181,22.7968144 C155.453454,22.0260447 155.091713,21.1500626 154.964039,20.8391539 L154.960493,20.8379718 Z" id="Uniswap_Lockup_Large_Black-1"></path>
            </g>
        </g>
    </g>
</svg>