<?xml version="1.0" encoding="UTF-8"?>
<svg width="172px" height="40px" viewBox="0 0 172 40" version="1.1" xmlns="http://www.w3.org/2000/svg" xmlns:xlink="http://www.w3.org/1999/xlink">
    <title>xt</title>
    <g id="NFT" stroke="none" stroke-width="1" fill="none" fill-rule="evenodd">
        <g id="Artboard" transform="translate(-1008.000000, -44.000000)" fill="#6C6E79">
            <g id="xt" transform="translate(1008.000000, 44.000000)">
                <path d="M88.2776319,27.4956198 C88.3066218,26.312661 89.2839802,25.3743264 90.4671383,25.3935357 C91.6502963,25.412745 92.5966788,26.3823128 92.5872514,27.5655892 C92.577824,28.7488656 91.6161132,29.7032312 90.4327992,29.7035864 C89.2286676,29.6873402 88.2647346,28.699792 88.2776319,27.4956198 Z M114.82363,10.30388 L114.82363,14.6718139 L108.256529,14.6718139 C106.040563,14.6718139 104.508586,15.1838061 103.660599,16.1917909 C102.839811,17.1437765 102.429418,18.6024211 102.429418,20.5677247 C102.429418,22.7543582 103.099541,24.3516674 104.439787,25.3596521 C104.975526,25.7464237 105.5823,26.0237128 106.22536,26.1756398 C107.10949,26.3557651 108.011402,26.4336088 108.91332,26.4076363 L114.82363,26.4076363 L114.82363,30.78357 L107.312544,30.78357 C105.688549,30.841428 104.066286,30.62783 102.512616,30.1515796 C101.29891,29.7101657 100.222845,28.9569202 99.3926636,27.9676127 C97.6240071,25.8832305 96.7013997,23.2113229 96.8071028,20.479726 C96.8071028,16.8317812 97.8332206,14.1118224 99.8854562,12.3198495 C100.735251,11.5763357 101.747306,11.0420891 102.840611,10.7598731 C104.306572,10.4213435 105.809227,10.2681486 107.313344,10.30388 L114.82443,10.30388 L114.82363,10.30388 Z M128.243427,10.0078845 C131.937238,10.0078845 134.659597,11.1012013 136.410503,13.2878348 C138.077552,15.4344316 138.934938,18.0997777 138.832067,20.8157209 C138.964136,23.6856463 137.856947,26.4740134 135.792113,28.471605 C133.930808,30.2075788 131.386313,31.0768989 128.158628,31.0795656 C124.819479,31.0795656 122.206185,30.0982471 120.318747,28.1356101 C118.567307,26.3676369 117.691587,23.7863426 117.691587,20.3917273 C117.603877,17.7811471 118.497222,15.2324029 120.195549,13.2478354 C122.058454,11.1118678 124.74108,10.0318841 128.243427,10.0078845 Z M128.285026,14.2958196 C124.974143,14.2958196 123.318702,16.3997877 123.318702,20.607724 C123.237637,21.9616345 123.521073,23.3125167 124.139489,24.5196648 C124.993593,26.0071166 126.613201,26.8860938 128.325826,26.7916305 C131.57911,26.7916305 133.205754,24.7009954 133.205754,20.5197254 C133.207885,16.4317872 131.567643,14.357152 128.285026,14.2958196 L128.285026,14.2958196 Z M142.894405,10.30388 L163.0861,10.30388 C164.493826,10.256059 165.90165,10.3959537 167.272436,10.7198737 C168.197736,10.9828605 169.034543,11.4915242 169.694,12.1918514 C170.969484,13.7512969 171.613763,15.7323769 171.499572,17.7437674 L171.499572,30.78357 L166.000456,30.78357 L166.000456,18.631754 C166.020486,17.9414752 165.979259,17.2507799 165.877257,16.5677852 C165.792789,16.1696577 165.593027,15.80519 165.302866,15.519801 C164.588543,14.9037194 163.657748,14.5984462 162.717305,14.6718139 L159.802949,14.6718139 L159.802949,30.78357 L154.303833,30.78357 L154.303833,14.6718139 L148.393522,14.6718139 L148.393522,30.78357 L142.894405,30.78357 L142.894405,10.30388 L142.894405,10.30388 Z M56.9005067,20.5357251 L48.9734267,10.039884 L55.2717314,10.039884 L60.0132596,17.0317782 L65.1539818,10.039884 L71.3794876,10.039884 L63.1988114,20.5357251 L71.3794876,31.247563 L65.3347791,31.247563 L60.0132596,23.9676732 L54.8013385,31.247563 L48.6838311,31.247563 L56.9005067,20.5357251 Z M79.415366,13.8238267 L70.1411063,13.8238267 L73.3570577,10.039884 L92.5567671,10.039884 L92.5567671,13.8238267 L84.5568882,13.8238267 L84.5568882,31.247563 L79.4169659,31.247563 L79.4169659,13.8238267 L79.415366,13.8238267 Z" id="形状_756"></path>
                <path d="M88.2776319,27.4956198 C88.3066218,26.312661 89.2839802,25.3743264 90.4671383,25.3935357 C91.6502963,25.412745 92.5966788,26.3823128 92.5872514,27.5655892 C92.577824,28.7488656 91.6161132,29.7032312 90.4327992,29.7035864 C89.2286676,29.6873402 88.2647346,28.699792 88.2776319,27.4956198 Z" id="形状_756_拷贝"></path>
                <path d="M20.1506629,39.9994306 C12.0481325,40.0603633 4.70948544,35.2264165 1.56646908,27.7580726 C-1.57654728,20.2897288 0.0972190925,11.6629513 5.80507035,5.9118518 C11.5129216,0.160752277 20.1268192,-1.5780837 27.6186747,1.50847002 C35.1105301,4.59502373 40.0000282,11.8969737 40.0000282,19.9997332 C40.0278866,30.9981488 31.1489759,39.9443348 20.1506629,39.9994306 Z M20.1506629,2.967991 C13.250578,2.91808067 7.00213312,7.03621891 4.32700434,13.396828 C1.65187556,19.7574372 3.07868745,27.1036153 7.94028485,32.0004034 C12.8018823,36.8971914 20.1375788,38.376949 26.5173163,35.7477644 C32.8970538,33.1185798 37.0600556,26.8999986 37.0600556,19.9997332 C37.0821693,10.6319364 29.5183759,3.01339256 20.1506629,2.967991 Z M20.8642521,17.2557748 L24.6961941,12.5678457 C24.9746755,12.2265097 25.0341112,11.7562439 24.8493114,11.356355 C24.6645117,10.956466 24.2678379,10.696981 23.8274072,10.6877891 L23.8274072,10.6877891 C23.4919304,10.6896087 23.1741985,10.8388198 22.9586204,11.095868 L19.3938743,15.4478021 L15.8291283,11.095868 C15.6172688,10.8340322 15.2971276,10.6836896 14.9603414,10.6877891 L12.0195859,10.6877891 C11.5767292,10.6918934 11.1758587,10.9508165 10.9900731,11.3528388 C10.8042875,11.7548611 10.8668708,12.2279591 11.1507991,12.5678457 L16.4531188,19.0477477 L9.68042133,27.3356222 C9.4071818,27.6449046 9.32258131,28.0777794 9.45927157,28.4671779 C9.59596183,28.8565764 9.9325645,29.1415966 10.3391671,29.2122344 C10.7457698,29.2828723 11.1587797,29.12808 11.418795,28.8075999 L17.9234966,20.8637202 L20.8642521,17.2557748 Z M29.7521176,10.6878742 C29.4168122,10.6903658 29.099382,10.8394352 28.8833307,11.095868 L22.4034288,19.0477477 L19.4626733,22.6476932 L15.6307313,27.3356222 C15.2242559,27.81544 15.2837115,28.5339225 15.7635293,28.9403979 C16.243347,29.3468734 16.9618296,29.2874177 17.368305,28.8075999 L20.933051,24.4636657 L24.4969971,28.8075999 C24.7093312,29.0692747 25.0296213,29.2195489 25.3665839,29.2156699 L28.3017395,29.2156699 C28.7452136,29.2128839 29.1471658,28.9541058 29.3332063,28.5515321 C29.5192467,28.1489584 29.455852,27.6751306 29.1705264,27.3356222 L23.8690066,20.8637202 L30.6417041,12.5678457 C30.9165868,12.2217139 30.9707036,11.7493836 30.781232,11.3500489 C30.5917604,10.9507141 30.1916809,10.6938854 29.7497176,10.6878742" id="形状_519"></path>
            </g>
        </g>
    </g>
</svg>